<svg width="438" height="472" version="1.1" xmlns="http://www.w3.org/2000/svg" desc="Created with imagetracer.js version 1.2.6" ><path fill="rgb(218,222,225)" stroke="rgb(218,222,225)" stroke-width="1" opacity="1" d="M 210.5 48 L 217 48.5 L 210.5 49 L 210.5 48 Z " /><path fill="rgb(218,222,225)" stroke="rgb(218,222,225)" stroke-width="1" opacity="1" d="M 221.5 48 L 227 48.5 L 221.5 49 L 221.5 48 Z " /><path fill="rgb(218,222,225)" stroke="rgb(218,222,225)" stroke-width="1" opacity="1" d="M 200.5 49 L 203 49.5 L 200.5 50 L 200.5 49 Z " /><path fill="rgb(218,222,225)" stroke="rgb(218,222,225)" stroke-width="1" opacity="1" d="M 234.5 49 L 237 49.5 L 234.5 50 L 234.5 49 Z " /><path fill="rgb(218,222,225)" stroke="rgb(218,222,225)" stroke-width="1" opacity="1" d="M 284.5 66 L 285.5 68 L 284.5 66 Z " /><path fill="rgb(218,222,225)" stroke="rgb(218,222,225)" stroke-width="1" opacity="1" d="M 287.5 68 L 288.5 70 L 287.5 68 Z " /><path fill="rgb(218,222,225)" stroke="rgb(218,222,225)" stroke-width="1" opacity="1" d="M 148.5 69 L 147.5 71 L 148.5 69 Z " /><path fill="rgb(218,222,225)" stroke="rgb(218,222,225)" stroke-width="1" opacity="1" d="M 218.5 72 L 222.5 77 L 218 73.5 L 218 215.5 L 218.5 216 L 233.5 216 L 233.5 217 L 218.5 217 L 217 215.5 L 217 73.5 L 218.5 72 Z " /><path fill="rgb(218,222,225)" stroke="rgb(218,222,225)" stroke-width="1" opacity="1" d="M 294.5 73 L 295.5 75 L 294.5 73 Z " /><path fill="rgb(218,222,225)" stroke="rgb(218,222,225)" stroke-width="1" opacity="1" d="M 141.5 74 L 140.5 76 L 141.5 74 Z " /><path fill="rgb(218,222,225)" stroke="rgb(218,222,225)" stroke-width="1" opacity="1" d="M 299.5 77 L 301.5 80 L 299.5 77 Z " /><path fill="rgb(218,222,225)" stroke="rgb(218,222,225)" stroke-width="1" opacity="1" d="M 136.5 78 L 133.5 82 L 136.5 78 Z " /><path fill="rgb(218,222,225)" stroke="rgb(218,222,225)" stroke-width="1" opacity="1" d="M 225.5 79 L 228.5 83 L 225.5 79 Z " /><path fill="rgb(218,222,225)" stroke="rgb(218,222,225)" stroke-width="1" opacity="1" d="M 306.5 83 L 309.5 87 L 306.5 83 Z " /><path fill="rgb(218,222,225)" stroke="rgb(218,222,225)" stroke-width="1" opacity="1" d="M 233.5 88 L 234 92.5 L 233 92.5 L 233.5 88 Z " /><path fill="rgb(218,222,225)" stroke="rgb(218,222,225)" stroke-width="1" opacity="1" d="M 124.5 90 L 121.5 94 L 124.5 90 Z " /><path fill="rgb(218,222,225)" stroke="rgb(218,222,225)" stroke-width="1" opacity="1" d="M 315.5 93 L 316.5 95 L 315.5 93 Z " /><path fill="rgb(218,222,225)" stroke="rgb(218,222,225)" stroke-width="1" opacity="1" d="M 206.5 94 L 209 94.5 L 207.5 97 L 206.5 95 L 203 97.5 L 206.5 94 Z " /><path fill="rgb(218,222,225)" stroke="rgb(218,222,225)" stroke-width="1" opacity="1" d="M 279.5 96 L 282 97.5 L 281.5 101 L 281 97 L 279.5 96 Z " /><path fill="rgb(218,222,225)" stroke="rgb(218,222,225)" stroke-width="1" opacity="1" d="M 118.5 97 L 117.5 99 L 118.5 97 Z " /><path fill="rgb(218,222,225)" stroke="rgb(218,222,225)" stroke-width="1" opacity="1" d="M 319.5 98 L 320.5 100 L 319.5 98 Z " /><path fill="rgb(218,222,225)" stroke="rgb(218,222,225)" stroke-width="1" opacity="1" d="M 200.5 99 L 199.5 101 L 200.5 99 Z " /><path fill="rgb(218,222,225)" stroke="rgb(218,222,225)" stroke-width="1" opacity="1" d="M 276.5 99 L 275.5 101 L 270.5 103 L 270.5 102 L 276.5 99 Z " /><path fill="rgb(218,222,225)" stroke="rgb(218,222,225)" stroke-width="1" opacity="1" d="M 197.5 101 L 195.5 104 L 197.5 101 Z " /><path fill="rgb(218,222,225)" stroke="rgb(218,222,225)" stroke-width="1" opacity="1" d="M 282.5 102 L 283 107.5 L 282 107.5 L 282.5 102 Z " /><path fill="rgb(218,222,225)" stroke="rgb(218,222,225)" stroke-width="1" opacity="1" d="M 193.5 104 L 190.5 108 L 187.5 110 L 189.5 107 L 193.5 104 Z " /><path fill="rgb(218,222,225)" stroke="rgb(218,222,225)" stroke-width="1" opacity="1" d="M 266.5 104 L 265.5 106 L 266.5 104 Z " /><path fill="rgb(218,222,225)" stroke="rgb(218,222,225)" stroke-width="1" opacity="1" d="M 204.5 106 L 205 112.5 L 204 112.5 L 204.5 106 Z " /><path fill="rgb(218,222,225)" stroke="rgb(218,222,225)" stroke-width="1" opacity="1" d="M 263.5 106 L 262.5 108 L 258.5 111 L 261.5 107 L 263.5 106 Z " /><path fill="rgb(218,222,225)" stroke="rgb(218,222,225)" stroke-width="1" opacity="1" d="M 281.5 109 L 282 112.5 L 281 112.5 L 281.5 109 Z " /><path fill="rgb(218,222,225)" stroke="rgb(218,222,225)" stroke-width="1" opacity="1" d="M 185.5 110 L 182.5 114 Q 180.3 113.3 181 115.5 L 180 115.5 L 181.5 113 L 185.5 110 Z " /><path fill="rgb(218,222,225)" stroke="rgb(218,222,225)" stroke-width="1" opacity="1" d="M 256.5 113 L 254.5 116 L 256.5 113 Z " /><path fill="rgb(218,222,225)" stroke="rgb(218,222,225)" stroke-width="1" opacity="1" d="M 181.5 117 L 183.5 120 L 181.5 117 Z " /><path fill="rgb(218,222,225)" stroke="rgb(218,222,225)" stroke-width="1" opacity="1" d="M 253.5 117 L 253 118.5 L 251.5 121 L 252 119.5 L 253.5 117 Z " /><path fill="rgb(218,222,225)" stroke="rgb(218,222,225)" stroke-width="1" opacity="1" d="M 278.5 118 L 277.5 120 L 278.5 118 Z " /><path fill="rgb(218,222,225)" stroke="rgb(218,222,225)" stroke-width="1" opacity="1" d="M 184.5 121 L 187.5 125 L 184.5 121 Z " /><path fill="rgb(218,222,225)" stroke="rgb(218,222,225)" stroke-width="1" opacity="1" d="M 207.5 121 Q 212.8 123.8 211 133.5 L 209 134.5 L 210 133.5 L 210 125.5 L 207.5 121 Z " /><path fill="rgb(218,222,225)" stroke="rgb(218,222,225)" stroke-width="1" opacity="1" d="M 276.5 121 L 272.5 126 L 276.5 121 Z " /><path fill="rgb(218,222,225)" stroke="rgb(218,222,225)" stroke-width="1" opacity="1" d="M 248.5 125 L 244.5 130 L 248.5 125 Z " /><path fill="rgb(218,222,225)" stroke="rgb(218,222,225)" stroke-width="1" opacity="1" d="M 190.5 126 L 191.5 128 L 190.5 126 Z " /><path fill="rgb(218,222,225)" stroke="rgb(218,222,225)" stroke-width="1" opacity="1" d="M 269.5 127 L 268.5 129 L 269.5 127 Z " /><path fill="rgb(218,222,225)" stroke="rgb(218,222,225)" stroke-width="1" opacity="1" d="M 193.5 128 L 200 131.5 L 198.5 132 Q 193.9 130.8 193.5 128 Z " /><path fill="rgb(218,222,225)" stroke="rgb(218,222,225)" stroke-width="1" opacity="1" d="M 266.5 129 L 265.5 131 L 264 130.5 L 266.5 129 Z " /><path fill="rgb(218,222,225)" stroke="rgb(218,222,225)" stroke-width="1" opacity="1" d="M 248.5 134 L 251 134.5 L 248.5 135 L 248.5 134 Z " /><path fill="rgb(218,222,225)" stroke="rgb(218,222,225)" stroke-width="1" opacity="1" d="M 159.5 136 L 163 136.5 L 159.5 137 L 159.5 136 Z " /><path fill="rgb(218,222,225)" stroke="rgb(218,222,225)" stroke-width="1" opacity="1" d="M 173.5 136 L 177 136.5 L 173.5 137 L 173.5 136 Z " /><path fill="rgb(218,222,225)" stroke="rgb(218,222,225)" stroke-width="1" opacity="1" d="M 181.5 137 L 184 137.5 L 181.5 138 L 181.5 137 Z " /><path fill="rgb(218,222,225)" stroke="rgb(218,222,225)" stroke-width="1" opacity="1" d="M 187.5 138 L 189 139.5 L 189 156 L 185 155.5 L 188 155 L 188 139.5 L 187.5 138 Z " /><path fill="rgb(218,222,225)" stroke="rgb(218,222,225)" stroke-width="1" opacity="1" d="M 150.5 139 L 152 139.5 L 147 142.5 L 148.5 143 L 150 142.5 L 140.5 153 L 140 151.5 L 147 143.5 L 145.5 143 L 143 144.5 L 150.5 139 Z " /><path fill="rgb(218,222,225)" stroke="rgb(218,222,225)" stroke-width="1" opacity="1" d="M 195.5 139 L 207 139.5 L 195.5 140 L 195.5 139 Z " /><path fill="rgb(218,222,225)" stroke="rgb(218,222,225)" stroke-width="1" opacity="1" d="M 243.5 139 L 248 139.5 L 242.5 141 L 243.5 139 Z " /><path fill="rgb(218,222,225)" stroke="rgb(218,222,225)" stroke-width="1" opacity="1" d="M 288.5 139 L 304 139.5 L 288 140 L 287.5 154 L 287 140.5 L 288.5 139 Z " /><path fill="rgb(218,222,225)" stroke="rgb(218,222,225)" stroke-width="1" opacity="1" d="M 251.5 140 L 260.5 140 L 262 141.5 L 260 142.5 L 260.5 141 L 251.5 141 L 251.5 140 Z " /><path fill="rgb(218,222,225)" stroke="rgb(218,222,225)" stroke-width="1" opacity="1" d="M 259.5 144 L 259 145.5 L 258.5 148 L 258 145.5 L 259.5 144 Z " /><path fill="rgb(218,222,225)" stroke="rgb(218,222,225)" stroke-width="1" opacity="1" d="M 140.5 148 L 139.5 150 L 140.5 148 Z " /><path fill="rgb(218,222,225)" stroke="rgb(218,222,225)" stroke-width="1" opacity="1" d="M 260.5 151 L 262 154.5 L 261 154.5 L 260.5 151 Z " /><path fill="rgb(218,222,225)" stroke="rgb(218,222,225)" stroke-width="1" opacity="1" d="M 168.5 153 L 172 153.5 L 168.5 154 L 168.5 153 Z " /><path fill="rgb(218,222,225)" stroke="rgb(218,222,225)" stroke-width="1" opacity="1" d="M 160.5 155 L 159.5 157 L 156.5 159 L 158.5 156 L 160.5 155 Z " /><path fill="rgb(218,222,225)" stroke="rgb(218,222,225)" stroke-width="1" opacity="1" d="M 287.5 157 L 288 165.5 L 287 165.5 L 287.5 157 Z " /><path fill="rgb(218,222,225)" stroke="rgb(218,222,225)" stroke-width="1" opacity="1" d="M 135.5 159 L 136 161.5 L 135 161.5 L 135.5 159 Z " /><path fill="rgb(218,222,225)" stroke="rgb(218,222,225)" stroke-width="1" opacity="1" d="M 263.5 159 L 264.5 161 L 263.5 159 Z " /><path fill="rgb(218,222,225)" stroke="rgb(218,222,225)" stroke-width="1" opacity="1" d="M 344.5 162 L 345 165.5 L 344 165.5 L 344.5 162 Z " /><path fill="rgb(218,222,225)" stroke="rgb(218,222,225)" stroke-width="1" opacity="1" d="M 154.5 163 L 155 165.5 L 154 165.5 L 154.5 163 Z " /><path fill="rgb(218,222,225)" stroke="rgb(218,222,225)" stroke-width="1" opacity="1" d="M 266.5 164 L 269 169.5 L 268 169.5 L 266.5 164 Z " /><path fill="rgb(218,222,225)" stroke="rgb(218,222,225)" stroke-width="1" opacity="1" d="M 92.5 165 L 93 178.5 L 92 178.5 L 92.5 165 Z " /><path fill="rgb(218,222,225)" stroke="rgb(218,222,225)" stroke-width="1" opacity="1" d="M 135.5 168 L 136 170.5 L 135 170.5 L 135.5 168 Z " /><path fill="rgb(218,222,225)" stroke="rgb(218,222,225)" stroke-width="1" opacity="1" d="M 249.5 170 L 251 172.5 L 250 173.5 L 249.5 209 L 249.5 170 Z " /><path fill="rgb(218,222,225)" stroke="rgb(218,222,225)" stroke-width="1" opacity="1" d="M 287.5 170 L 288 209.5 L 287 209.5 L 286 207.5 L 287 206.5 L 287.5 170 Z " /><path fill="rgb(218,222,225)" stroke="rgb(218,222,225)" stroke-width="1" opacity="1" d="M 251.5 174 L 253 177.5 L 252 177.5 L 251.5 174 Z " /><path fill="rgb(218,222,225)" stroke="rgb(218,222,225)" stroke-width="1" opacity="1" d="M 137.5 175 L 140 179.5 L 138 178.5 L 137.5 175 Z " /><path fill="rgb(218,222,225)" stroke="rgb(218,222,225)" stroke-width="1" opacity="1" d="M 273.5 179 L 275 182.5 L 274 182.5 L 273.5 179 Z " /><path fill="rgb(218,222,225)" stroke="rgb(218,222,225)" stroke-width="1" opacity="1" d="M 140.5 181 L 142.5 184 L 140.5 181 Z " /><path fill="rgb(218,222,225)" stroke="rgb(218,222,225)" stroke-width="1" opacity="1" d="M 195.5 182 L 197.5 185 L 195.5 182 Z " /><path fill="rgb(218,222,225)" stroke="rgb(218,222,225)" stroke-width="1" opacity="1" d="M 187.5 183 L 188.5 185 L 187.5 183 Z " /><path fill="rgb(218,222,225)" stroke="rgb(218,222,225)" stroke-width="1" opacity="1" d="M 144.5 184 L 146.5 187 L 144.5 184 Z " /><path fill="rgb(218,222,225)" stroke="rgb(218,222,225)" stroke-width="1" opacity="1" d="M 199.5 186 L 205 193 L 207 193.5 L 205.5 194 L 199.5 186 Z " /><path fill="rgb(218,222,225)" stroke="rgb(218,222,225)" stroke-width="1" opacity="1" d="M 344.5 186 L 345 188.5 L 344 188.5 L 344.5 186 Z " /><path fill="rgb(218,222,225)" stroke="rgb(218,222,225)" stroke-width="1" opacity="1" d="M 148.5 187 L 149.5 189 L 148.5 187 Z " /><path fill="rgb(218,222,225)" stroke="rgb(218,222,225)" stroke-width="1" opacity="1" d="M 193.5 187 L 195.5 190 L 193.5 187 Z " /><path fill="rgb(218,222,225)" stroke="rgb(218,222,225)" stroke-width="1" opacity="1" d="M 257.5 187 L 259 190.5 L 258 190.5 L 257.5 187 Z " /><path fill="rgb(218,222,225)" stroke="rgb(218,222,225)" stroke-width="1" opacity="1" d="M 151.5 189 L 155 190.5 L 153.5 191 L 151.5 189 Z " /><path fill="rgb(218,222,225)" stroke="rgb(218,222,225)" stroke-width="1" opacity="1" d="M 93.5 190 L 94 192.5 L 93 192.5 L 93.5 190 Z " /><path fill="rgb(218,222,225)" stroke="rgb(218,222,225)" stroke-width="1" opacity="1" d="M 279.5 192 L 282 197.5 L 281 197.5 L 279.5 192 Z " /><path fill="rgb(218,222,225)" stroke="rgb(218,222,225)" stroke-width="1" opacity="1" d="M 199.5 193 L 201.5 196 L 199.5 193 Z " /><path fill="rgb(218,222,225)" stroke="rgb(218,222,225)" stroke-width="1" opacity="1" d="M 260.5 194 L 262 197.5 L 261 197.5 L 260.5 194 Z " /><path fill="rgb(218,222,225)" stroke="rgb(218,222,225)" stroke-width="1" opacity="1" d="M 166.5 195 L 170 196.5 L 168.5 197 L 166.5 195 Z " /><path fill="rgb(218,222,225)" stroke="rgb(218,222,225)" stroke-width="1" opacity="1" d="M 143.5 196 Q 145.8 195.3 145 197.5 L 143.5 197 L 140 199.5 L 143.5 196 Z " /><path fill="rgb(218,222,225)" stroke="rgb(218,222,225)" stroke-width="1" opacity="1" d="M 176.5 199 L 177.5 201 L 176.5 199 Z " /><path fill="rgb(218,222,225)" stroke="rgb(218,222,225)" stroke-width="1" opacity="1" d="M 139.5 201 L 138 203.5 L 136.5 206 L 137 204.5 L 139.5 201 Z " /><path fill="rgb(218,222,225)" stroke="rgb(218,222,225)" stroke-width="1" opacity="1" d="M 179.5 201 L 186 206.5 L 187 208.5 L 185 207.5 L 181.5 203 L 179.5 201 Z " /><path fill="rgb(218,222,225)" stroke="rgb(218,222,225)" stroke-width="1" opacity="1" d="M 264.5 203 L 267 208.5 L 266 208.5 L 264.5 203 Z " /><path fill="rgb(218,222,225)" stroke="rgb(218,222,225)" stroke-width="1" opacity="1" d="M 135.5 207 L 134.5 209 L 135.5 207 Z " /><path fill="rgb(218,222,225)" stroke="rgb(218,222,225)" stroke-width="1" opacity="1" d="M 242.5 209 L 243 213.5 L 242 213.5 L 242.5 209 Z " /><path fill="rgb(218,222,225)" stroke="rgb(218,222,225)" stroke-width="1" opacity="1" d="M 133.5 210 L 134 211.5 L 131.5 218 L 131 215.5 L 133.5 210 Z " /><path fill="rgb(218,222,225)" stroke="rgb(218,222,225)" stroke-width="1" opacity="1" d="M 188.5 214 L 189 216.5 L 188 216.5 L 188.5 214 Z " /><path fill="rgb(218,222,225)" stroke="rgb(218,222,225)" stroke-width="1" opacity="1" d="M 248.5 214 L 245.5 218 L 248.5 214 Z " /><path fill="rgb(218,222,225)" stroke="rgb(218,222,225)" stroke-width="1" opacity="1" d="M 206.5 216 L 205.5 218 L 203 217.5 L 206.5 216 Z " /><path fill="rgb(218,222,225)" stroke="rgb(218,222,225)" stroke-width="1" opacity="1" d="M 270.5 216 L 304 216.5 L 270.5 217 L 270.5 216 Z " /><path fill="rgb(218,222,225)" stroke="rgb(218,222,225)" stroke-width="1" opacity="1" d="M 146.5 219 L 148 222.5 L 147 222.5 L 146.5 219 Z " /><path fill="rgb(218,222,225)" stroke="rgb(218,222,225)" stroke-width="1" opacity="1" d="M 187.5 220 L 188 222 L 190 222.5 L 187 223 L 187.5 220 Z " /><path fill="rgb(218,222,225)" stroke="rgb(218,222,225)" stroke-width="1" opacity="1" d="M 218.5 221 L 230.5 221 L 244 223.5 L 239.5 224 L 229.5 222 L 219.5 222 L 218.5 223 L 206.5 224 L 206.5 223 L 217.5 222 L 218.5 221 Z " /><path fill="rgb(218,222,225)" stroke="rgb(218,222,225)" stroke-width="1" opacity="1" d="M 259.5 223 L 264 223.5 L 260.5 225 L 259.5 223 Z " /><path fill="rgb(218,222,225)" stroke="rgb(218,222,225)" stroke-width="1" opacity="1" d="M 131.5 224 L 132 227.5 L 131 227.5 L 131.5 224 Z " /><path fill="rgb(218,222,225)" stroke="rgb(218,222,225)" stroke-width="1" opacity="1" d="M 202.5 224 L 205 224.5 L 202.5 225 L 202.5 224 Z " /><path fill="rgb(218,222,225)" stroke="rgb(218,222,225)" stroke-width="1" opacity="1" d="M 279.5 224 L 285 224.5 L 279.5 225 L 279.5 224 Z " /><path fill="rgb(218,222,225)" stroke="rgb(218,222,225)" stroke-width="1" opacity="1" d="M 300.5 225 L 299 227.5 L 297.5 230 L 294.5 232 L 296.5 229 Q 298.8 229.8 298 227.5 L 300.5 225 Z " /><path fill="rgb(218,222,225)" stroke="rgb(218,222,225)" stroke-width="1" opacity="1" d="M 195.5 226 L 198 226.5 L 188.5 230 L 188.5 229 L 195.5 226 Z " /><path fill="rgb(218,222,225)" stroke="rgb(218,222,225)" stroke-width="1" opacity="1" d="M 251.5 226 L 257 228.5 L 255.5 229 L 251.5 227 L 251.5 226 Z " /><path fill="rgb(218,222,225)" stroke="rgb(218,222,225)" stroke-width="1" opacity="1" d="M 264.5 226 L 267 227.5 L 265.5 228 L 264.5 226 Z " /><path fill="rgb(218,222,225)" stroke="rgb(218,222,225)" stroke-width="1" opacity="1" d="M 268.5 228 L 274 230.5 L 272.5 231 L 268.5 229 L 268.5 228 Z " /><path fill="rgb(218,222,225)" stroke="rgb(218,222,225)" stroke-width="1" opacity="1" d="M 221.5 230 L 228 230.5 L 221.5 231 L 221.5 230 Z " /><path fill="rgb(218,222,225)" stroke="rgb(218,222,225)" stroke-width="1" opacity="1" d="M 214.5 231 L 218 231.5 L 214.5 232 L 214.5 231 Z " /><path fill="rgb(218,222,225)" stroke="rgb(218,222,225)" stroke-width="1" opacity="1" d="M 232.5 231 L 235 231.5 L 232.5 232 L 232.5 231 Z " /><path fill="rgb(218,222,225)" stroke="rgb(218,222,225)" stroke-width="1" opacity="1" d="M 176.5 233 L 179 233.5 Q 173.2 236.7 164 236.5 Q 166.7 241.8 174 242.5 L 170.5 243 L 163 236.5 L 163.5 235 L 171.5 235 L 176.5 233 Z " /><path fill="rgb(218,222,225)" stroke="rgb(218,222,225)" stroke-width="1" opacity="1" d="M 266.5 233 L 273 235.5 L 270.5 236 L 266.5 234 L 266.5 233 Z " /><path fill="rgb(218,222,225)" stroke="rgb(218,222,225)" stroke-width="1" opacity="1" d="M 283.5 233 L 289 233.5 L 283.5 234 L 283.5 233 Z " /><path fill="rgb(218,222,225)" stroke="rgb(218,222,225)" stroke-width="1" opacity="1" d="M 154.5 234 L 155.5 236 L 154.5 234 Z " /><path fill="rgb(218,222,225)" stroke="rgb(218,222,225)" stroke-width="1" opacity="1" d="M 243.5 234 L 255 239.5 L 253.5 239 L 243.5 235 L 243.5 234 Z " /><path fill="rgb(218,222,225)" stroke="rgb(218,222,225)" stroke-width="1" opacity="1" d="M 201.5 235 L 203 235.5 L 196.5 238 L 196.5 237 L 201.5 235 Z " /><path fill="rgb(218,222,225)" stroke="rgb(218,222,225)" stroke-width="1" opacity="1" d="M 221.5 236 L 232 236.5 L 221.5 237 L 221.5 236 Z " /><path fill="rgb(218,222,225)" stroke="rgb(218,222,225)" stroke-width="1" opacity="1" d="M 135.5 237 L 136.5 239 L 135.5 237 Z " /><path fill="rgb(218,222,225)" stroke="rgb(218,222,225)" stroke-width="1" opacity="1" d="M 221.5 238 L 229 238.5 L 221.5 239 L 221.5 238 Z " /><path fill="rgb(218,222,225)" stroke="rgb(218,222,225)" stroke-width="1" opacity="1" d="M 158.5 239 L 161.5 243 L 158.5 239 Z " /><path fill="rgb(218,222,225)" stroke="rgb(218,222,225)" stroke-width="1" opacity="1" d="M 242.5 239 L 241.5 241 L 242.5 239 Z " /><path fill="rgb(218,222,225)" stroke="rgb(218,222,225)" stroke-width="1" opacity="1" d="M 292.5 239 L 291.5 241 L 292.5 239 Z " /><path fill="rgb(218,222,225)" stroke="rgb(218,222,225)" stroke-width="1" opacity="1" d="M 206.5 240 L 208 240.5 L 204.5 242 L 204.5 241 L 206.5 240 Z " /><path fill="rgb(218,222,225)" stroke="rgb(218,222,225)" stroke-width="1" opacity="1" d="M 256.5 240 L 265 243.5 L 263.5 244 L 256.5 241 L 256.5 240 Z " /><path fill="rgb(218,222,225)" stroke="rgb(218,222,225)" stroke-width="1" opacity="1" d="M 289.5 241 L 288.5 243 L 289.5 241 Z " /><path fill="rgb(218,222,225)" stroke="rgb(218,222,225)" stroke-width="1" opacity="1" d="M 138.5 242 L 139.5 244 L 138.5 242 Z " /><path fill="rgb(218,222,225)" stroke="rgb(218,222,225)" stroke-width="1" opacity="1" d="M 178.5 242 L 184 242.5 L 178.5 243 L 178.5 242 Z " /><path fill="rgb(218,222,225)" stroke="rgb(218,222,225)" stroke-width="1" opacity="1" d="M 236.5 242 L 238 242.5 L 232.5 245 L 232.5 244 L 236.5 242 Z " /><path fill="rgb(218,222,225)" stroke="rgb(218,222,225)" stroke-width="1" opacity="1" d="M 266.5 244 L 269 244.5 L 266.5 245 L 266.5 244 Z " /><path fill="rgb(218,222,225)" stroke="rgb(218,222,225)" stroke-width="1" opacity="1" d="M 281.5 244 L 284 244.5 L 281.5 245 L 281.5 244 Z " /><path fill="rgb(218,222,225)" stroke="rgb(218,222,225)" stroke-width="1" opacity="1" d="M 140.5 245 L 144.5 250 L 140.5 245 Z " /><path fill="rgb(218,222,225)" stroke="rgb(218,222,225)" stroke-width="1" opacity="1" d="M 165.5 245 L 166.5 247 L 165.5 245 Z " /><path fill="rgb(218,222,225)" stroke="rgb(218,222,225)" stroke-width="1" opacity="1" d="M 273.5 245 L 278 245.5 L 273.5 246 L 273.5 245 Z " /><path fill="rgb(218,222,225)" stroke="rgb(218,222,225)" stroke-width="1" opacity="1" d="M 189.5 246 L 193 246.5 L 184.5 248 L 184.5 247 L 189.5 246 Z " /><path fill="rgb(218,222,225)" stroke="rgb(218,222,225)" stroke-width="1" opacity="1" d="M 168.5 247 L 169.5 249 L 168.5 247 Z " /><path fill="rgb(218,222,225)" stroke="rgb(218,222,225)" stroke-width="1" opacity="1" d="M 261.5 247 Q 263.8 246.3 263 248.5 L 261 249.5 L 261.5 247 Z " /><path fill="rgb(218,222,225)" stroke="rgb(218,222,225)" stroke-width="1" opacity="1" d="M 181 248 Q 184 247 183 250 L 185.5 250 L 185.5 251 L 181 250 L 181 248 Z " /><path fill="rgb(218,222,225)" stroke="rgb(218,222,225)" stroke-width="1" opacity="1" d="M 221.5 248 L 224 248.5 L 215.5 251 L 215.5 250 L 221.5 248 Z " /><path fill="rgb(218,222,225)" stroke="rgb(218,222,225)" stroke-width="1" opacity="1" d="M 173.5 250 L 174.5 252 L 173.5 250 Z " /><path fill="rgb(218,222,225)" stroke="rgb(218,222,225)" stroke-width="1" opacity="1" d="M 259.5 250 L 258.5 252 L 259.5 250 Z " /><path fill="rgb(218,222,225)" stroke="rgb(218,222,225)" stroke-width="1" opacity="1" d="M 191.5 252 L 195 252.5 L 191.5 253 L 191.5 252 Z " /><path fill="rgb(218,222,225)" stroke="rgb(218,222,225)" stroke-width="1" opacity="1" d="M 205.5 252 L 208 252.5 L 205.5 253 L 205.5 252 Z " /><path fill="rgb(218,222,225)" stroke="rgb(218,222,225)" stroke-width="1" opacity="1" d="M 256.5 252 L 254.5 255 L 256.5 252 Z " /><path fill="rgb(218,222,225)" stroke="rgb(218,222,225)" stroke-width="1" opacity="1" d="M 178.5 253 L 182 254.5 L 180.5 255 L 178.5 253 Z " /><path fill="rgb(218,222,225)" stroke="rgb(218,222,225)" stroke-width="1" opacity="1" d="M 227.5 253 L 230 253.5 L 225.5 255 L 225.5 254 L 227.5 253 Z " /><path fill="rgb(218,222,225)" stroke="rgb(218,222,225)" stroke-width="1" opacity="1" d="M 149.5 254 L 155 258.5 L 153.5 258 L 149.5 254 Z " /><path fill="rgb(218,222,225)" stroke="rgb(218,222,225)" stroke-width="1" opacity="1" d="M 252.5 255 L 251.5 257 L 249.5 258 L 250.5 256 L 252.5 255 Z " /><path fill="rgb(218,222,225)" stroke="rgb(218,222,225)" stroke-width="1" opacity="1" d="M 213.5 257 L 216 257.5 L 213.5 258 L 213.5 257 Z " /><path fill="rgb(218,222,225)" stroke="rgb(218,222,225)" stroke-width="1" opacity="1" d="M 197.5 258 L 207 258.5 L 197.5 259 L 197.5 258 Z " /><path fill="rgb(218,222,225)" stroke="rgb(218,222,225)" stroke-width="1" opacity="1" d="M 247.5 258 L 246.5 260 L 247.5 258 Z " /><path fill="rgb(218,222,225)" stroke="rgb(218,222,225)" stroke-width="1" opacity="1" d="M 157.5 260 L 166 264.5 L 164.5 265 L 158.5 262 L 157.5 260 Z " /><path fill="rgb(218,222,225)" stroke="rgb(218,222,225)" stroke-width="1" opacity="1" d="M 242.5 261 L 241.5 263 L 238.5 264 L 238.5 263 L 242.5 261 Z " /><path fill="rgb(218,222,225)" stroke="rgb(218,222,225)" stroke-width="1" opacity="1" d="M 177.5 269 L 180 269.5 L 177.5 270 L 177.5 269 Z " /><path fill="rgb(218,222,225)" stroke="rgb(218,222,225)" stroke-width="1" opacity="1" d="M 220.5 269 L 223 269.5 L 220.5 270 L 220.5 269 Z " /><path fill="rgb(218,222,225)" stroke="rgb(218,222,225)" stroke-width="1" opacity="1" d="M 181.5 270 L 185 270.5 L 181.5 271 L 181.5 270 Z " /><path fill="rgb(218,222,225)" stroke="rgb(218,222,225)" stroke-width="1" opacity="1" d="M 214.5 270 L 219 270.5 L 214.5 271 L 214.5 270 Z " /><path fill="rgb(218,222,225)" stroke="rgb(218,222,225)" stroke-width="1" opacity="1" d="M 190.5 271 L 198 271.5 L 190.5 272 L 190.5 271 Z " /><path fill="rgb(218,222,225)" stroke="rgb(218,222,225)" stroke-width="1" opacity="1" d="M 204.5 271 L 212 271.5 L 204.5 272 L 204.5 271 Z " /><path fill="rgb(218,222,225)" stroke="rgb(218,222,225)" stroke-width="1" opacity="1" d="M 207.5 398 L 208.5 400 L 207.5 398 Z " /><path fill="rgb(218,222,225)" stroke="rgb(218,222,225)" stroke-width="1" opacity="1" d="M 230.5 398 L 229.5 400 L 230.5 398 Z " /><path fill="rgb(218,222,225)" stroke="rgb(218,222,225)" stroke-width="1" opacity="1" d="M 209.5 401 L 210.5 403 L 209.5 401 Z " /><path fill="rgb(218,222,225)" stroke="rgb(218,222,225)" stroke-width="1" opacity="1" d="M 228.5 401 L 227.5 403 L 228.5 401 Z " /><path fill="rgb(218,222,225)" stroke="rgb(218,222,225)" stroke-width="1" opacity="1" d="M 211.5 404 L 212.5 406 L 211.5 404 Z " /><path fill="rgb(218,222,225)" stroke="rgb(218,222,225)" stroke-width="1" opacity="1" d="M 225.5 405 L 221.5 410 L 225.5 405 Z " /><path fill="rgb(218,222,225)" stroke="rgb(218,222,225)" stroke-width="1" opacity="1" d="M 215.5 408 L 216.5 410 L 215.5 408 Z " /><path fill="rgb(0,0,0)" stroke="rgb(0,0,0)" stroke-width="1" opacity="0" d="M 0 0 L 438 0 L 438 472 L 0 472 L 0 0 Z M 206 42 L 205 43 L 198 43 L 188 45 L 162 54 Q 145 62 133 73 Q 96 103 86 160 L 86 189 Q 89 190 87 197 L 91 214 L 96 228 Q 152 326 213 420 L 219 423 L 222 422 L 228 416 L 235 405 L 333 244 L 344 221 L 351 191 L 351 161 L 347 140 Q 338 109 320 89 Q 300 64 269 51 L 240 43 Q 233 45 232 42 L 206 42 Z " /><path fill="rgb(0,0,0)" stroke="rgb(0,0,0)" stroke-width="1" opacity="0.9803921568627451" d="M 205.5 42 L 231.5 42 Q 233.2 44.8 239.5 43 L 268.5 51 Q 299.7 64.3 320 88.5 Q 338.2 109.3 347 139.5 L 351 160.5 L 351 190.5 L 344 220.5 L 333 243.5 L 235 404.5 L 228 415.5 L 221.5 422 L 218.5 423 L 213 419.5 Q 152.5 325.5 96 227.5 L 91 213.5 L 87 196.5 Q 88.7 190.2 86 188.5 L 86 159.5 Q 95.5 102.5 132.5 73 Q 145.4 61.9 161.5 54 L 187.5 45 L 197.5 43 L 204.5 43 L 205.5 42 Z M 205 48 L 188 51 L 168 58 Q 148 67 134 80 Q 101 108 92 160 L 92 189 L 95 206 L 101 224 L 115 250 L 212 407 L 218 411 Q 222 412 224 409 L 234 395 L 329 239 L 341 211 L 344 199 L 345 183 L 346 182 L 344 152 L 339 133 Q 331 109 316 93 Q 295 68 263 55 L 246 50 L 234 49 L 233 48 L 205 48 Z " /><path fill="rgb(19,43,64)" stroke="rgb(19,43,64)" stroke-width="1" opacity="1" d="M 147.5 69 L 146.5 71 L 147.5 69 Z " /><path fill="rgb(19,43,64)" stroke="rgb(19,43,64)" stroke-width="1" opacity="1" d="M 301.5 78 L 302.5 80 L 301.5 78 Z " /><path fill="rgb(19,43,64)" stroke="rgb(19,43,64)" stroke-width="1" opacity="1" d="M 133.5 80 L 131.5 83 L 133.5 80 Z " /><path fill="rgb(19,43,64)" stroke="rgb(19,43,64)" stroke-width="1" opacity="1" d="M 218.5 80 L 219 105 L 224.5 104 Q 226.8 108.3 229 103.5 L 229.5 97 L 231.5 102 L 232.5 93 L 233 216 L 218.5 216 L 218 215.5 L 218.5 80 Z " /><path fill="rgb(19,43,64)" stroke="rgb(19,43,64)" stroke-width="1" opacity="1" d="M 126.5 87 L 123.5 91 L 126.5 87 Z " /><path fill="rgb(19,43,64)" stroke="rgb(19,43,64)" stroke-width="1" opacity="1" d="M 314.5 91 L 315.5 93 L 314.5 91 Z " /><path fill="rgb(19,43,64)" stroke="rgb(19,43,64)" stroke-width="1" opacity="1" d="M 202.5 99 L 201.5 102 L 204 102.5 Q 201.5 104 203 109.5 Q 205.8 111.2 204 117.5 L 208 125 L 210 125.5 L 210 133 Q 191.9 130.9 183 118.5 L 182 114.5 L 202.5 99 Z " /><path fill="rgb(19,43,64)" stroke="rgb(19,43,64)" stroke-width="1" opacity="1" d="M 278.5 99 L 281 99.5 L 281 110.5 Q 278.4 121.9 269.5 127 L 256.5 133 L 240.5 134 L 240.5 133 L 249 126.5 L 259.5 111 L 265.5 106 L 275.5 102 L 278.5 99 Z " /><path fill="rgb(19,43,64)" stroke="rgb(19,43,64)" stroke-width="1" opacity="1" d="M 162.5 137 L 184.5 138 L 188 139 L 187.5 155 Q 178.4 151.1 163.5 153 L 157 156 L 154 161.5 L 154 166.5 L 159.5 173 L 189.5 185 L 199 193.5 Q 207.3 201 206 217 L 189 221 L 188 208.5 L 179.5 200 L 146.5 186 L 141 180.5 L 136 171.5 L 136 159.5 L 137.5 156 L 138.5 160 L 146 146 L 162.5 137 Z " /><path fill="rgb(19,43,64)" stroke="rgb(19,43,64)" stroke-width="1" opacity="1" d="M 196 140 L 205.5 140 L 206 140.5 L 206 191.5 L 203 189.5 L 196 181.5 L 196 140 Z " /><path fill="rgb(19,43,64)" stroke="rgb(19,43,64)" stroke-width="1" opacity="1" d="M 243 140 L 256.5 141 L 259 142.5 Q 256.5 144 258 149.5 L 287.5 211 L 289 210.5 L 289 140.5 L 289.5 140 L 303 140 L 303 216 L 271.5 216 L 249.5 169 L 249 207.5 Q 246.8 208.8 248 213.5 L 245.5 216 L 243 215.5 L 243 140 Z " /><path fill="rgb(19,43,64)" stroke="rgb(19,43,64)" stroke-width="1" opacity="1" d="M 345.5 170 L 346 181.5 L 345 181.5 L 345.5 170 Z " /><path fill="rgb(19,43,64)" stroke="rgb(19,43,64)" stroke-width="1" opacity="1" d="M 92.5 186 L 93 188.5 L 92 188.5 L 92.5 186 Z " /><path fill="rgb(19,43,64)" stroke="rgb(19,43,64)" stroke-width="1" opacity="1" d="M 143.5 198 L 143 199.5 L 143 209.5 L 145 219.5 L 151 231.5 L 159 242 L 173.5 252 L 184.5 257 L 194.5 259 L 211.5 259 L 225.5 256 L 241.5 249 L 248.5 244 L 251.5 244 L 261 248.5 Q 246.4 261.4 225.5 268 L 211.5 271 L 189.5 271 L 169.5 266 L 157.5 260 L 143 247.5 L 135 235.5 L 132 226.5 L 132 217.5 Q 135.1 205.1 143.5 198 Z " /><path fill="rgb(19,43,64)" stroke="rgb(19,43,64)" stroke-width="1" opacity="1" d="M 281.5 239 Q 286.6 238.4 288 241.5 L 283.5 244 L 272.5 245 L 267 243.5 L 269.5 242 L 283 240.5 L 281.5 239 Z " /><path fill="rgb(19,43,64)" stroke="rgb(19,43,64)" stroke-width="1" opacity="1" d="M 212.5 247 Q 217.8 245.8 219 248.5 Q 209.5 254 192.5 252 L 192.5 251 L 208.5 249 L 212.5 247 Z " /><path fill="rgb(19,43,64)" stroke="rgb(19,43,64)" stroke-width="1" opacity="1" d="M 212.5 406 L 214.5 409 L 212.5 406 Z " /><path fill="rgb(19,43,64)" stroke="rgb(19,43,64)" stroke-width="1" opacity="1" d="M 225.5 406 L 223.5 409 L 225.5 406 Z " /><path fill="rgb(47,91,118)" stroke="rgb(47,91,118)" stroke-width="1" opacity="1" d="M 206.5 48 L 210 48.5 L 206.5 49 L 206.5 48 Z " /><path fill="rgb(47,91,118)" stroke="rgb(47,91,118)" stroke-width="1" opacity="1" d="M 227.5 48 L 231 48.5 L 227.5 49 L 227.5 48 Z " /><path fill="rgb(47,91,118)" stroke="rgb(47,91,118)" stroke-width="1" opacity="1" d="M 218.5 73 L 233 87.5 Q 231.8 92.2 234 93.5 L 234 215.5 L 233 215.5 L 232.5 93 L 231.5 102 L 229.5 97 L 229 103.5 L 226.5 106 Q 225.8 103.3 221.5 104 L 221.5 106 L 219 105 L 219 80.5 Q 216.2 78.7 218.5 73 Z " /><path fill="rgb(47,91,118)" stroke="rgb(47,91,118)" stroke-width="1" opacity="1" d="M 297.5 75 L 298.5 77 L 297.5 75 Z " /><path fill="rgb(47,91,118)" stroke="rgb(47,91,118)" stroke-width="1" opacity="1" d="M 138.5 76 L 137.5 78 L 138.5 76 Z " /><path fill="rgb(47,91,118)" stroke="rgb(47,91,118)" stroke-width="1" opacity="1" d="M 303.5 80 L 305.5 83 L 303.5 80 Z " /><path fill="rgb(47,91,118)" stroke="rgb(47,91,118)" stroke-width="1" opacity="1" d="M 130.5 83 L 127.5 87 L 130.5 83 Z " /><path fill="rgb(47,91,118)" stroke="rgb(47,91,118)" stroke-width="1" opacity="1" d="M 310.5 87 L 313.5 91 L 310.5 87 Z " /><path fill="rgb(47,91,118)" stroke="rgb(47,91,118)" stroke-width="1" opacity="1" d="M 120.5 94 L 119.5 96 L 120.5 94 Z " /><path fill="rgb(47,91,118)" stroke="rgb(47,91,118)" stroke-width="1" opacity="1" d="M 206.5 95 L 207 97.5 L 203.5 110 L 203 103.5 L 203.5 102 L 200.5 101 L 191.5 108 L 194.5 104 L 206.5 95 Z " /><path fill="rgb(47,91,118)" stroke="rgb(47,91,118)" stroke-width="1" opacity="1" d="M 317.5 95 L 318.5 97 L 317.5 95 Z " /><path fill="rgb(47,91,118)" stroke="rgb(47,91,118)" stroke-width="1" opacity="1" d="M 279.5 97 Q 282.1 96.3 281 99 L 278.5 99 L 275.5 102 L 266.5 106 L 267.5 104 Q 275.7 102.7 279.5 97 Z " /><path fill="rgb(47,91,118)" stroke="rgb(47,91,118)" stroke-width="1" opacity="1" d="M 281.5 101 L 282 108.5 L 281 108.5 L 281.5 101 Z " /><path fill="rgb(47,91,118)" stroke="rgb(47,91,118)" stroke-width="1" opacity="1" d="M 264.5 106 L 260.5 111 L 257.5 113 L 261.5 108 L 264.5 106 Z " /><path fill="rgb(47,91,118)" stroke="rgb(47,91,118)" stroke-width="1" opacity="1" d="M 189.5 108 L 186.5 112 L 185 111.5 L 189.5 108 Z " /><path fill="rgb(47,91,118)" stroke="rgb(47,91,118)" stroke-width="1" opacity="1" d="M 280.5 111 L 281 113.5 L 278.5 118 L 278 116.5 L 280.5 111 Z " /><path fill="rgb(47,91,118)" stroke="rgb(47,91,118)" stroke-width="1" opacity="1" d="M 204.5 113 L 208 122.5 L 206 121.5 Q 202.9 118.5 204.5 113 Z " /><path fill="rgb(47,91,118)" stroke="rgb(47,91,118)" stroke-width="1" opacity="1" d="M 181.5 114 L 183 117.5 L 181 116.5 L 181.5 114 Z " /><path fill="rgb(47,91,118)" stroke="rgb(47,91,118)" stroke-width="1" opacity="1" d="M 255.5 115 L 255 116.5 L 253.5 119 L 254 117.5 L 255.5 115 Z " /><path fill="rgb(47,91,118)" stroke="rgb(47,91,118)" stroke-width="1" opacity="1" d="M 184.5 120 L 189.5 126 L 184.5 120 Z " /><path fill="rgb(47,91,118)" stroke="rgb(47,91,118)" stroke-width="1" opacity="1" d="M 252.5 120 L 251.5 122 L 252.5 120 Z " /><path fill="rgb(47,91,118)" stroke="rgb(47,91,118)" stroke-width="1" opacity="1" d="M 276.5 120 L 270.5 127 L 276.5 120 Z " /><path fill="rgb(47,91,118)" stroke="rgb(47,91,118)" stroke-width="1" opacity="1" d="M 250.5 123 L 249.5 125 L 250.5 123 Z " /><path fill="rgb(47,91,118)" stroke="rgb(47,91,118)" stroke-width="1" opacity="1" d="M 191.5 126 L 195 128.5 L 193.5 128 L 191.5 126 Z " /><path fill="rgb(47,91,118)" stroke="rgb(47,91,118)" stroke-width="1" opacity="1" d="M 248.5 126 L 244.5 131 L 241.5 133 L 243.5 130 L 248.5 126 Z " /><path fill="rgb(47,91,118)" stroke="rgb(47,91,118)" stroke-width="1" opacity="1" d="M 268.5 127 L 267.5 129 L 265.5 130 L 266.5 128 L 268.5 127 Z " /><path fill="rgb(47,91,118)" stroke="rgb(47,91,118)" stroke-width="1" opacity="1" d="M 206.5 133 L 210 133.5 L 206.5 134 L 206.5 133 Z " /><path fill="rgb(47,91,118)" stroke="rgb(47,91,118)" stroke-width="1" opacity="1" d="M 239.5 133 L 248 134.5 L 239 135 L 239.5 133 Z " /><path fill="rgb(47,91,118)" stroke="rgb(47,91,118)" stroke-width="1" opacity="1" d="M 249.5 133 L 255 133.5 L 249.5 134 L 249.5 133 Z " /><path fill="rgb(47,91,118)" stroke="rgb(47,91,118)" stroke-width="1" opacity="1" d="M 163.5 136 L 172.5 136 L 181 137.5 L 173.5 138 L 172.5 137 L 163.5 137 L 163.5 136 Z " /><path fill="rgb(47,91,118)" stroke="rgb(47,91,118)" stroke-width="1" opacity="1" d="M 157 137 L 162 137.5 L 156.5 140 L 157 138.5 L 157 137 Z " /><path fill="rgb(47,91,118)" stroke="rgb(47,91,118)" stroke-width="1" opacity="1" d="M 154.5 138 L 155 140.5 L 154 140.5 L 154.5 138 Z " /><path fill="rgb(47,91,118)" stroke="rgb(47,91,118)" stroke-width="1" opacity="1" d="M 152.5 139 L 153 141.5 L 147.5 146 L 148.5 143 L 142 148.5 L 142.5 150 L 146 147.5 Q 140.5 152 138.5 160 L 137 154 L 139 153.5 L 138.5 152 L 140.5 153 L 142 150.5 L 140.5 151 L 139 150.5 L 145.5 143 L 152.5 139 Z " /><path fill="rgb(47,91,118)" stroke="rgb(47,91,118)" stroke-width="1" opacity="1" d="M 195.5 140 L 196 181.5 L 203 188.5 L 195 181.5 L 195.5 140 Z " /><path fill="rgb(47,91,118)" stroke="rgb(47,91,118)" stroke-width="1" opacity="1" d="M 206.5 140 L 207 193 L 205 192.5 L 206 191.5 L 206.5 140 Z " /><path fill="rgb(47,91,118)" stroke="rgb(47,91,118)" stroke-width="1" opacity="1" d="M 248.5 140 L 251 140.5 L 248.5 141 L 248.5 140 Z " /><path fill="rgb(47,91,118)" stroke="rgb(47,91,118)" stroke-width="1" opacity="1" d="M 288.5 140 L 289 211 L 286 209.5 L 285 206.5 L 286 206.5 L 287.5 210 L 288.5 140 Z " /><path fill="rgb(47,91,118)" stroke="rgb(47,91,118)" stroke-width="1" opacity="1" d="M 303.5 140 L 304 215.5 L 303 215.5 L 303.5 140 Z " /><path fill="rgb(47,91,118)" stroke="rgb(47,91,118)" stroke-width="1" opacity="1" d="M 257.5 141 L 261 141.5 L 258.5 145 L 258 143.5 L 258.5 142 L 257.5 141 Z " /><path fill="rgb(47,91,118)" stroke="rgb(47,91,118)" stroke-width="1" opacity="1" d="M 258.5 148 L 260 151.5 L 259 151.5 L 258.5 148 Z " /><path fill="rgb(47,91,118)" stroke="rgb(47,91,118)" stroke-width="1" opacity="1" d="M 163.5 153 L 168 153.5 L 163.5 154 L 163.5 153 Z " /><path fill="rgb(47,91,118)" stroke="rgb(47,91,118)" stroke-width="1" opacity="1" d="M 172.5 153 L 180.5 153 L 187 154.5 L 181.5 155 L 180.5 154 L 172.5 154 L 172.5 153 Z " /><path fill="rgb(47,91,118)" stroke="rgb(47,91,118)" stroke-width="1" opacity="1" d="M 160.5 154 L 162 154.5 L 159.5 156 L 160.5 154 Z " /><path fill="rgb(47,91,118)" stroke="rgb(47,91,118)" stroke-width="1" opacity="1" d="M 344.5 159 L 345 161.5 L 344 161.5 L 344.5 159 Z " /><path fill="rgb(47,91,118)" stroke="rgb(47,91,118)" stroke-width="1" opacity="1" d="M 92.5 161 L 93 164.5 L 92 164.5 L 92.5 161 Z " /><path fill="rgb(47,91,118)" stroke="rgb(47,91,118)" stroke-width="1" opacity="1" d="M 264.5 161 L 266 164.5 L 265 164.5 L 264.5 161 Z " /><path fill="rgb(47,91,118)" stroke="rgb(47,91,118)" stroke-width="1" opacity="1" d="M 135.5 162 L 136 167.5 L 135 167.5 L 135.5 162 Z " /><path fill="rgb(47,91,118)" stroke="rgb(47,91,118)" stroke-width="1" opacity="1" d="M 155.5 168 L 159.5 173 L 155.5 168 Z " /><path fill="rgb(47,91,118)" stroke="rgb(47,91,118)" stroke-width="1" opacity="1" d="M 165.5 175 L 172 177.5 L 170.5 178 L 165.5 176 L 165.5 175 Z " /><path fill="rgb(47,91,118)" stroke="rgb(47,91,118)" stroke-width="1" opacity="1" d="M 271.5 176 L 273 179.5 L 272 179.5 L 271.5 176 Z " /><path fill="rgb(47,91,118)" stroke="rgb(47,91,118)" stroke-width="1" opacity="1" d="M 253.5 177 L 255 180.5 L 254 180.5 L 253.5 177 Z " /><path fill="rgb(47,91,118)" stroke="rgb(47,91,118)" stroke-width="1" opacity="1" d="M 139.5 178 L 144 183.5 L 140 180.5 L 139.5 178 Z " /><path fill="rgb(47,91,118)" stroke="rgb(47,91,118)" stroke-width="1" opacity="1" d="M 92.5 179 L 93 185.5 L 92 185.5 L 92.5 179 Z " /><path fill="rgb(47,91,118)" stroke="rgb(47,91,118)" stroke-width="1" opacity="1" d="M 183.5 182 L 187 183.5 L 185.5 184 L 183.5 182 Z " /><path fill="rgb(47,91,118)" stroke="rgb(47,91,118)" stroke-width="1" opacity="1" d="M 149.5 187 L 152 188.5 L 150.5 189 L 149.5 187 Z " /><path fill="rgb(47,91,118)" stroke="rgb(47,91,118)" stroke-width="1" opacity="1" d="M 192.5 187 L 194.5 190 L 192.5 187 Z " /><path fill="rgb(47,91,118)" stroke="rgb(47,91,118)" stroke-width="1" opacity="1" d="M 344.5 189 L 345 191.5 L 344 191.5 L 344.5 189 Z " /><path fill="rgb(47,91,118)" stroke="rgb(47,91,118)" stroke-width="1" opacity="1" d="M 196.5 190 L 198.5 193 L 196.5 190 Z " /><path fill="rgb(47,91,118)" stroke="rgb(47,91,118)" stroke-width="1" opacity="1" d="M 199.5 194 L 201.5 197 L 199.5 194 Z " /><path fill="rgb(47,91,118)" stroke="rgb(47,91,118)" stroke-width="1" opacity="1" d="M 143.5 197 L 144 199.5 L 143.5 210 L 142.5 199 L 138.5 204 L 140 201.5 L 143.5 197 Z " /><path fill="rgb(47,91,118)" stroke="rgb(47,91,118)" stroke-width="1" opacity="1" d="M 178.5 200 L 181 201.5 L 179.5 201 L 178.5 200 Z " /><path fill="rgb(47,91,118)" stroke="rgb(47,91,118)" stroke-width="1" opacity="1" d="M 205.5 204 L 206 206.5 L 205 206.5 L 205.5 204 Z " /><path fill="rgb(47,91,118)" stroke="rgb(47,91,118)" stroke-width="1" opacity="1" d="M 186.5 207 L 188 209.5 L 187 209.5 L 186.5 207 Z " /><path fill="rgb(47,91,118)" stroke="rgb(47,91,118)" stroke-width="1" opacity="1" d="M 135.5 208 L 135 209.5 L 134.5 211 L 134 209.5 L 135.5 208 Z " /><path fill="rgb(47,91,118)" stroke="rgb(47,91,118)" stroke-width="1" opacity="1" d="M 206.5 208 L 207 215.5 L 206 215.5 L 206.5 208 Z " /><path fill="rgb(47,91,118)" stroke="rgb(47,91,118)" stroke-width="1" opacity="1" d="M 248.5 208 L 249 213.5 Q 248.5 217.5 243.5 217 L 243.5 216 Q 247.5 216.5 248 213.5 L 248.5 208 Z " /><path fill="rgb(47,91,118)" stroke="rgb(47,91,118)" stroke-width="1" opacity="1" d="M 267.5 208 L 269 211.5 L 268 211.5 L 267.5 208 Z " /><path fill="rgb(47,91,118)" stroke="rgb(47,91,118)" stroke-width="1" opacity="1" d="M 188.5 211 L 189 213.5 L 188 213.5 L 188.5 211 Z " /><path fill="rgb(47,91,118)" stroke="rgb(47,91,118)" stroke-width="1" opacity="1" d="M 144.5 213 L 145 215.5 L 144 215.5 L 144.5 213 Z " /><path fill="rgb(47,91,118)" stroke="rgb(47,91,118)" stroke-width="1" opacity="1" d="M 145.5 217 L 146 219.5 L 145 219.5 L 145.5 217 Z " /><path fill="rgb(47,91,118)" stroke="rgb(47,91,118)" stroke-width="1" opacity="1" d="M 188.5 217 L 189 221 L 192.5 220 L 192.5 221 L 188 222 L 188.5 217 Z " /><path fill="rgb(47,91,118)" stroke="rgb(47,91,118)" stroke-width="1" opacity="1" d="M 131.5 218 L 132 223.5 L 131 223.5 L 131.5 218 Z " /><path fill="rgb(47,91,118)" stroke="rgb(47,91,118)" stroke-width="1" opacity="1" d="M 219.5 222 L 229.5 222 L 230.5 223 L 244.5 224 L 270.5 236 L 281 238 Q 279.9 240.7 282.5 240 L 282.5 241 L 269.5 242 L 265.5 244 L 238.5 232 L 221.5 230 L 210.5 232 L 184.5 242 L 174.5 243 Q 167.1 241.9 164 236.5 L 175.5 235 L 201.5 225 L 210.5 223 L 218.5 223 L 219.5 222 Z " /><path fill="rgb(47,91,118)" stroke="rgb(47,91,118)" stroke-width="1" opacity="1" d="M 264.5 223 L 300.5 223 L 301 224.5 L 298 229 L 290.5 233 L 280.5 233 L 261 224.5 L 264.5 223 Z M 280 224 L 280 225 L 285 225 L 280 224 Z " /><path fill="rgb(47,91,118)" stroke="rgb(47,91,118)" stroke-width="1" opacity="1" d="M 150.5 229 L 154 233.5 L 151 231.5 L 150.5 229 Z " /><path fill="rgb(47,91,118)" stroke="rgb(47,91,118)" stroke-width="1" opacity="1" d="M 154.5 235 L 157.5 239 L 154.5 235 Z " /><path fill="rgb(47,91,118)" stroke="rgb(47,91,118)" stroke-width="1" opacity="1" d="M 218.5 237 L 235.5 237 L 242 239.5 Q 232.5 246 219.5 249 Q 218.3 245.8 212.5 247 L 208.5 249 L 194.5 250 L 189.5 252 L 183 250 Q 181.6 246 188.5 248 L 218.5 237 Z M 222 238 L 222 239 L 229 239 L 222 238 Z " /><path fill="rgb(47,91,118)" stroke="rgb(47,91,118)" stroke-width="1" opacity="1" d="M 285.5 239 L 292 239.5 L 286.5 243 L 286.5 242 L 288 241.5 L 285.5 239 Z " /><path fill="rgb(47,91,118)" stroke="rgb(47,91,118)" stroke-width="1" opacity="1" d="M 138.5 241 L 139.5 243 L 138.5 241 Z " /><path fill="rgb(47,91,118)" stroke="rgb(47,91,118)" stroke-width="1" opacity="1" d="M 162.5 243 L 164.5 246 L 162.5 243 Z " /><path fill="rgb(47,91,118)" stroke="rgb(47,91,118)" stroke-width="1" opacity="1" d="M 140.5 244 L 142.5 247 L 140.5 244 Z " /><path fill="rgb(47,91,118)" stroke="rgb(47,91,118)" stroke-width="1" opacity="1" d="M 247.5 244 L 246.5 246 L 247.5 244 Z " /><path fill="rgb(47,91,118)" stroke="rgb(47,91,118)" stroke-width="1" opacity="1" d="M 269.5 244 L 272 244.5 L 269.5 245 L 269.5 244 Z " /><path fill="rgb(47,91,118)" stroke="rgb(47,91,118)" stroke-width="1" opacity="1" d="M 167.5 247 L 168.5 249 L 167.5 247 Z " /><path fill="rgb(47,91,118)" stroke="rgb(47,91,118)" stroke-width="1" opacity="1" d="M 242.5 247 L 241.5 249 L 236.5 251 L 236.5 250 L 242.5 247 Z " /><path fill="rgb(47,91,118)" stroke="rgb(47,91,118)" stroke-width="1" opacity="1" d="M 259.5 247 L 262 248.5 L 260 249.5 L 260.5 248 L 259.5 247 Z " /><path fill="rgb(47,91,118)" stroke="rgb(47,91,118)" stroke-width="1" opacity="1" d="M 145.5 250 L 148.5 254 L 145.5 250 Z " /><path fill="rgb(47,91,118)" stroke="rgb(47,91,118)" stroke-width="1" opacity="1" d="M 172.5 250 L 173.5 252 L 172.5 250 Z " /><path fill="rgb(47,91,118)" stroke="rgb(47,91,118)" stroke-width="1" opacity="1" d="M 195.5 252 L 205 252.5 L 195.5 253 L 195.5 252 Z " /><path fill="rgb(47,91,118)" stroke="rgb(47,91,118)" stroke-width="1" opacity="1" d="M 254.5 253 L 253.5 255 L 251.5 256 L 252.5 254 L 254.5 253 Z " /><path fill="rgb(47,91,118)" stroke="rgb(47,91,118)" stroke-width="1" opacity="1" d="M 150.5 254 L 152.5 257 L 150.5 254 Z " /><path fill="rgb(47,91,118)" stroke="rgb(47,91,118)" stroke-width="1" opacity="1" d="M 223.5 255 L 226 255.5 L 220.5 257 L 220.5 256 L 223.5 255 Z " /><path fill="rgb(47,91,118)" stroke="rgb(47,91,118)" stroke-width="1" opacity="1" d="M 155.5 258 L 156.5 260 L 155.5 258 Z " /><path fill="rgb(47,91,118)" stroke="rgb(47,91,118)" stroke-width="1" opacity="1" d="M 194.5 258 L 197 258.5 L 194.5 259 L 194.5 258 Z " /><path fill="rgb(47,91,118)" stroke="rgb(47,91,118)" stroke-width="1" opacity="1" d="M 207.5 258 L 212 258.5 L 207.5 259 L 207.5 258 Z " /><path fill="rgb(47,91,118)" stroke="rgb(47,91,118)" stroke-width="1" opacity="1" d="M 246.5 258 L 245.5 260 L 246.5 258 Z " /><path fill="rgb(47,91,118)" stroke="rgb(47,91,118)" stroke-width="1" opacity="1" d="M 176.5 268 L 179 268.5 L 176.5 269 L 176.5 268 Z " /><path fill="rgb(47,91,118)" stroke="rgb(47,91,118)" stroke-width="1" opacity="1" d="M 222.5 268 L 225 268.5 L 222.5 269 L 222.5 268 Z " /><path fill="rgb(47,91,118)" stroke="rgb(47,91,118)" stroke-width="1" opacity="1" d="M 180.5 269 L 183 269.5 L 180.5 270 L 180.5 269 Z " /><path fill="rgb(47,91,118)" stroke="rgb(47,91,118)" stroke-width="1" opacity="1" d="M 217.5 269 L 220 269.5 L 217.5 270 L 217.5 269 Z " /><path fill="rgb(47,91,118)" stroke="rgb(47,91,118)" stroke-width="1" opacity="1" d="M 185.5 270 L 189 270.5 L 185.5 271 L 185.5 270 Z " /><path fill="rgb(47,91,118)" stroke="rgb(47,91,118)" stroke-width="1" opacity="1" d="M 198.5 271 L 204 271.5 L 198.5 272 L 198.5 271 Z " /><path fill="rgb(254,254,254)" stroke="rgb(254,254,254)" stroke-width="1" opacity="1" d="M 217 71 L 223 75.5 L 218.5 72 L 217 72.5 L 217 71 Z " /><path fill="rgb(254,254,254)" stroke="rgb(254,254,254)" stroke-width="1" opacity="1" d="M 223.5 77 L 224.5 79 L 223.5 77 Z " /><path fill="rgb(254,254,254)" stroke="rgb(254,254,254)" stroke-width="1" opacity="1" d="M 227.5 80 L 228.5 82 L 227.5 80 Z " /><path fill="rgb(254,254,254)" stroke="rgb(254,254,254)" stroke-width="1" opacity="1" d="M 132.5 82 L 131.5 84 L 132.5 82 Z " /><path fill="rgb(254,254,254)" stroke="rgb(254,254,254)" stroke-width="1" opacity="1" d="M 229.5 83 L 235 88.5 L 235 216.5 L 234 216.5 L 234 88.5 L 229.5 83 Z " /><path fill="rgb(254,254,254)" stroke="rgb(254,254,254)" stroke-width="1" opacity="1" d="M 126.5 88 L 125.5 90 L 126.5 88 Z " /><path fill="rgb(254,254,254)" stroke="rgb(254,254,254)" stroke-width="1" opacity="1" d="M 313.5 91 L 314.5 93 L 313.5 91 Z " /><path fill="rgb(254,254,254)" stroke="rgb(254,254,254)" stroke-width="1" opacity="1" d="M 205.5 94 L 201.5 99 L 205.5 94 Z " /><path fill="rgb(254,254,254)" stroke="rgb(254,254,254)" stroke-width="1" opacity="1" d="M 278.5 97 L 277.5 99 L 278.5 97 Z " /><path fill="rgb(254,254,254)" stroke="rgb(254,254,254)" stroke-width="1" opacity="1" d="M 199.5 99 L 198.5 101 L 197 100.5 L 199.5 99 Z " /><path fill="rgb(254,254,254)" stroke="rgb(254,254,254)" stroke-width="1" opacity="1" d="M 282.5 99 L 283 101.5 L 282 101.5 L 282.5 99 Z " /><path fill="rgb(254,254,254)" stroke="rgb(254,254,254)" stroke-width="1" opacity="1" d="M 195.5 102 L 194.5 104 L 195.5 102 Z " /><path fill="rgb(254,254,254)" stroke="rgb(254,254,254)" stroke-width="1" opacity="1" d="M 265.5 104 L 264.5 106 L 265.5 104 Z " /><path fill="rgb(254,254,254)" stroke="rgb(254,254,254)" stroke-width="1" opacity="1" d="M 191.5 105 L 190.5 107 L 191.5 105 Z " /><path fill="rgb(254,254,254)" stroke="rgb(254,254,254)" stroke-width="1" opacity="1" d="M 188.5 107 L 186.5 110 L 188.5 107 Z " /><path fill="rgb(254,254,254)" stroke="rgb(254,254,254)" stroke-width="1" opacity="1" d="M 259.5 108 L 258.5 110 L 259.5 108 Z " /><path fill="rgb(254,254,254)" stroke="rgb(254,254,254)" stroke-width="1" opacity="1" d="M 282.5 108 L 283 111.5 L 282 111.5 L 282.5 108 Z " /><path fill="rgb(254,254,254)" stroke="rgb(254,254,254)" stroke-width="1" opacity="1" d="M 257.5 111 L 254.5 115 L 257.5 111 Z " /><path fill="rgb(254,254,254)" stroke="rgb(254,254,254)" stroke-width="1" opacity="1" d="M 280.5 115 L 281 116.5 L 279 117.5 L 280.5 115 Z " /><path fill="rgb(254,254,254)" stroke="rgb(254,254,254)" stroke-width="1" opacity="1" d="M 251.5 119 L 251 120.5 L 250.5 122 L 250 120.5 L 251.5 119 Z " /><path fill="rgb(254,254,254)" stroke="rgb(254,254,254)" stroke-width="1" opacity="1" d="M 207.5 120 L 208.5 122 L 207.5 120 Z " /><path fill="rgb(254,254,254)" stroke="rgb(254,254,254)" stroke-width="1" opacity="1" d="M 276.5 122 L 273.5 126 L 276.5 122 Z " /><path fill="rgb(254,254,254)" stroke="rgb(254,254,254)" stroke-width="1" opacity="1" d="M 185.5 123 L 186.5 125 L 185.5 123 Z " /><path fill="rgb(254,254,254)" stroke="rgb(254,254,254)" stroke-width="1" opacity="1" d="M 249.5 123 L 241.5 132 L 249.5 123 Z " /><path fill="rgb(254,254,254)" stroke="rgb(254,254,254)" stroke-width="1" opacity="1" d="M 271.5 126 L 269.5 129 L 271.5 126 Z " /><path fill="rgb(254,254,254)" stroke="rgb(254,254,254)" stroke-width="1" opacity="1" d="M 192.5 128 L 193.5 130 L 192.5 128 Z " /><path fill="rgb(254,254,254)" stroke="rgb(254,254,254)" stroke-width="1" opacity="1" d="M 267.5 129 L 266.5 131 L 267.5 129 Z " /><path fill="rgb(254,254,254)" stroke="rgb(254,254,254)" stroke-width="1" opacity="1" d="M 163.5 135 L 173 135.5 L 163.5 136 L 163.5 135 Z " /><path fill="rgb(254,254,254)" stroke="rgb(254,254,254)" stroke-width="1" opacity="1" d="M 177.5 136 L 181 136.5 L 177.5 137 L 177.5 136 Z " /><path fill="rgb(254,254,254)" stroke="rgb(254,254,254)" stroke-width="1" opacity="1" d="M 184.5 137 L 187 137.5 L 184.5 138 L 184.5 137 Z " /><path fill="rgb(254,254,254)" stroke="rgb(254,254,254)" stroke-width="1" opacity="1" d="M 248.5 139 L 257 139.5 L 248.5 140 L 248.5 139 Z " /><path fill="rgb(254,254,254)" stroke="rgb(254,254,254)" stroke-width="1" opacity="1" d="M 147.5 140 L 146.5 142 L 147.5 140 Z " /><path fill="rgb(254,254,254)" stroke="rgb(254,254,254)" stroke-width="1" opacity="1" d="M 194.5 140 L 195 181.5 L 194 181.5 L 194.5 140 Z " /><path fill="rgb(254,254,254)" stroke="rgb(254,254,254)" stroke-width="1" opacity="1" d="M 261.5 140 Q 265 142 260.5 144 L 261.5 140 Z " /><path fill="rgb(254,254,254)" stroke="rgb(254,254,254)" stroke-width="1" opacity="1" d="M 242.5 141 L 243 208.5 L 242 208.5 L 242.5 141 Z " /><path fill="rgb(254,254,254)" stroke="rgb(254,254,254)" stroke-width="1" opacity="1" d="M 142.5 145 L 139 149.5 L 137.5 153 L 137 151.5 L 142.5 145 Z " /><path fill="rgb(254,254,254)" stroke="rgb(254,254,254)" stroke-width="1" opacity="1" d="M 304.5 149 L 305 154.5 L 304 154.5 L 304.5 149 Z " /><path fill="rgb(254,254,254)" stroke="rgb(254,254,254)" stroke-width="1" opacity="1" d="M 287.5 154 L 288 156.5 L 287 156.5 L 287.5 154 Z " /><path fill="rgb(254,254,254)" stroke="rgb(254,254,254)" stroke-width="1" opacity="1" d="M 158.5 157 L 157.5 159 L 158.5 157 Z " /><path fill="rgb(254,254,254)" stroke="rgb(254,254,254)" stroke-width="1" opacity="1" d="M 263.5 158 L 264.5 160 L 263.5 158 Z " /><path fill="rgb(254,254,254)" stroke="rgb(254,254,254)" stroke-width="1" opacity="1" d="M 155.5 162 L 156 166.5 L 155 166.5 L 155.5 162 Z " /><path fill="rgb(254,254,254)" stroke="rgb(254,254,254)" stroke-width="1" opacity="1" d="M 304.5 163 L 305 168.5 L 304 168.5 L 304.5 163 Z " /><path fill="rgb(254,254,254)" stroke="rgb(254,254,254)" stroke-width="1" opacity="1" d="M 134.5 164 L 135 167.5 L 134 167.5 L 134.5 164 Z " /><path fill="rgb(254,254,254)" stroke="rgb(254,254,254)" stroke-width="1" opacity="1" d="M 158.5 170 L 159.5 172 L 158.5 170 Z " /><path fill="rgb(254,254,254)" stroke="rgb(254,254,254)" stroke-width="1" opacity="1" d="M 270.5 173 L 271.5 175 L 270.5 173 Z " /><path fill="rgb(254,254,254)" stroke="rgb(254,254,254)" stroke-width="1" opacity="1" d="M 304.5 178 L 305 182.5 L 304 182.5 L 304.5 178 Z " /><path fill="rgb(254,254,254)" stroke="rgb(254,254,254)" stroke-width="1" opacity="1" d="M 138.5 179 L 139.5 181 L 138.5 179 Z " /><path fill="rgb(254,254,254)" stroke="rgb(254,254,254)" stroke-width="1" opacity="1" d="M 275.5 182 L 277 185.5 L 276 185.5 L 275.5 182 Z " /><path fill="rgb(254,254,254)" stroke="rgb(254,254,254)" stroke-width="1" opacity="1" d="M 143.5 184 L 145.5 187 L 143.5 184 Z " /><path fill="rgb(254,254,254)" stroke="rgb(254,254,254)" stroke-width="1" opacity="1" d="M 189.5 184 L 190.5 186 L 189.5 184 Z " /><path fill="rgb(254,254,254)" stroke="rgb(254,254,254)" stroke-width="1" opacity="1" d="M 147.5 187 L 148.5 189 L 147.5 187 Z " /><path fill="rgb(254,254,254)" stroke="rgb(254,254,254)" stroke-width="1" opacity="1" d="M 194.5 187 L 196.5 190 L 194.5 187 Z " /><path fill="rgb(254,254,254)" stroke="rgb(254,254,254)" stroke-width="1" opacity="1" d="M 202.5 190 L 203.5 192 L 202.5 190 Z " /><path fill="rgb(254,254,254)" stroke="rgb(254,254,254)" stroke-width="1" opacity="1" d="M 199.5 192 L 201.5 195 L 199.5 192 Z " /><path fill="rgb(254,254,254)" stroke="rgb(254,254,254)" stroke-width="1" opacity="1" d="M 304.5 197 L 305 199.5 L 304 199.5 L 304.5 197 Z " /><path fill="rgb(254,254,254)" stroke="rgb(254,254,254)" stroke-width="1" opacity="1" d="M 172.5 198 L 177 200.5 L 175.5 200 Q 171.8 199.7 172.5 198 Z " /><path fill="rgb(254,254,254)" stroke="rgb(254,254,254)" stroke-width="1" opacity="1" d="M 139.5 200 L 137.5 203 L 139.5 200 Z " /><path fill="rgb(254,254,254)" stroke="rgb(254,254,254)" stroke-width="1" opacity="1" d="M 178.5 201 L 179.5 203 L 178.5 201 Z " /><path fill="rgb(254,254,254)" stroke="rgb(254,254,254)" stroke-width="1" opacity="1" d="M 181.5 203 L 184.5 207 L 181.5 203 Z " /><path fill="rgb(254,254,254)" stroke="rgb(254,254,254)" stroke-width="1" opacity="1" d="M 135.5 206 L 134.5 208 L 135.5 206 Z " /><path fill="rgb(254,254,254)" stroke="rgb(254,254,254)" stroke-width="1" opacity="1" d="M 185.5 208 L 187 210.5 L 186 210.5 L 185.5 208 Z " /><path fill="rgb(254,254,254)" stroke="rgb(254,254,254)" stroke-width="1" opacity="1" d="M 249.5 209 L 250 214.5 L 246 217.5 Q 250.3 215.8 249.5 209 Z " /><path fill="rgb(254,254,254)" stroke="rgb(254,254,254)" stroke-width="1" opacity="1" d="M 304.5 209 L 305 211.5 L 304 211.5 L 304.5 209 Z " /><path fill="rgb(254,254,254)" stroke="rgb(254,254,254)" stroke-width="1" opacity="1" d="M 207.5 210 L 208 213.5 L 207 213.5 L 207.5 210 Z " /><path fill="rgb(254,254,254)" stroke="rgb(254,254,254)" stroke-width="1" opacity="1" d="M 242.5 214 L 243 217 L 245 217.5 L 243.5 218 Q 241 217 242.5 214 Z " /><path fill="rgb(254,254,254)" stroke="rgb(254,254,254)" stroke-width="1" opacity="1" d="M 130.5 216 L 131 226.5 L 130 226.5 L 130.5 216 Z " /><path fill="rgb(254,254,254)" stroke="rgb(254,254,254)" stroke-width="1" opacity="1" d="M 217.5 216 L 218.5 217 L 233 217.5 L 218.5 218 L 217.5 216 Z " /><path fill="rgb(254,254,254)" stroke="rgb(254,254,254)" stroke-width="1" opacity="1" d="M 187.5 217 L 188 219.5 L 187 219.5 L 187.5 217 Z " /><path fill="rgb(254,254,254)" stroke="rgb(254,254,254)" stroke-width="1" opacity="1" d="M 270.5 217 L 304 217.5 L 270.5 218 L 270.5 217 Z " /><path fill="rgb(254,254,254)" stroke="rgb(254,254,254)" stroke-width="1" opacity="1" d="M 201.5 218 L 205 218.5 L 201.5 219 L 201.5 218 Z " /><path fill="rgb(254,254,254)" stroke="rgb(254,254,254)" stroke-width="1" opacity="1" d="M 214.5 221 L 218 221.5 L 214.5 222 L 214.5 221 Z " /><path fill="rgb(254,254,254)" stroke="rgb(254,254,254)" stroke-width="1" opacity="1" d="M 231.5 221 L 235 221.5 L 231.5 222 L 231.5 221 Z " /><path fill="rgb(254,254,254)" stroke="rgb(254,254,254)" stroke-width="1" opacity="1" d="M 186.5 222 L 189 223.5 L 187.5 224 L 186.5 222 Z " /><path fill="rgb(254,254,254)" stroke="rgb(254,254,254)" stroke-width="1" opacity="1" d="M 260.5 222 L 301.5 222 L 303 223.5 L 301 224.5 L 301.5 223 L 260.5 223 L 260.5 222 Z " /><path fill="rgb(254,254,254)" stroke="rgb(254,254,254)" stroke-width="1" opacity="1" d="M 258.5 223 L 262 225.5 L 260.5 226 L 258 225 L 258.5 223 Z " /><path fill="rgb(254,254,254)" stroke="rgb(254,254,254)" stroke-width="1" opacity="1" d="M 249.5 225 L 252 225.5 L 249.5 226 L 249.5 225 Z " /><path fill="rgb(254,254,254)" stroke="rgb(254,254,254)" stroke-width="1" opacity="1" d="M 263.5 226 L 264.5 228 L 263.5 226 Z " /><path fill="rgb(254,254,254)" stroke="rgb(254,254,254)" stroke-width="1" opacity="1" d="M 300.5 226 L 299.5 228 L 300.5 226 Z " /><path fill="rgb(254,254,254)" stroke="rgb(254,254,254)" stroke-width="1" opacity="1" d="M 266.5 228 L 270 229.5 L 268.5 230 L 266.5 228 Z " /><path fill="rgb(254,254,254)" stroke="rgb(254,254,254)" stroke-width="1" opacity="1" d="M 296.5 230 L 295.5 232 L 296.5 230 Z " /><path fill="rgb(254,254,254)" stroke="rgb(254,254,254)" stroke-width="1" opacity="1" d="M 218.5 231 L 232 231.5 L 218.5 232 L 218.5 231 Z " /><path fill="rgb(254,254,254)" stroke="rgb(254,254,254)" stroke-width="1" opacity="1" d="M 153.5 232 L 155.5 235 L 153.5 232 Z " /><path fill="rgb(254,254,254)" stroke="rgb(254,254,254)" stroke-width="1" opacity="1" d="M 234.5 232 L 237 232.5 L 234.5 233 L 234.5 232 Z " /><path fill="rgb(254,254,254)" stroke="rgb(254,254,254)" stroke-width="1" opacity="1" d="M 163.5 234 L 166 234.5 L 163 235 L 168 241.5 L 162 236.5 L 163.5 234 Z " /><path fill="rgb(254,254,254)" stroke="rgb(254,254,254)" stroke-width="1" opacity="1" d="M 168.5 234 L 172 234.5 L 168.5 235 L 168.5 234 Z " /><path fill="rgb(254,254,254)" stroke="rgb(254,254,254)" stroke-width="1" opacity="1" d="M 203.5 235 L 205 235.5 L 201.5 237 L 201.5 236 L 203.5 235 Z " /><path fill="rgb(254,254,254)" stroke="rgb(254,254,254)" stroke-width="1" opacity="1" d="M 246.5 236 L 250 237.5 L 248.5 238 L 246.5 236 Z " /><path fill="rgb(254,254,254)" stroke="rgb(254,254,254)" stroke-width="1" opacity="1" d="M 283.5 238 L 286 238.5 L 283.5 239 L 283.5 238 Z " /><path fill="rgb(254,254,254)" stroke="rgb(254,254,254)" stroke-width="1" opacity="1" d="M 159.5 239 L 164.5 245 L 159.5 239 Z " /><path fill="rgb(254,254,254)" stroke="rgb(254,254,254)" stroke-width="1" opacity="1" d="M 293.5 239 L 292.5 241 L 293.5 239 Z " /><path fill="rgb(254,254,254)" stroke="rgb(254,254,254)" stroke-width="1" opacity="1" d="M 242.5 240 L 241.5 242 L 236.5 244 L 236.5 243 L 242.5 240 Z " /><path fill="rgb(254,254,254)" stroke="rgb(254,254,254)" stroke-width="1" opacity="1" d="M 137.5 241 L 140 244.5 L 137 242.5 L 137.5 241 Z " /><path fill="rgb(254,254,254)" stroke="rgb(254,254,254)" stroke-width="1" opacity="1" d="M 290.5 241 L 288.5 244 L 287 243.5 L 290.5 241 Z " /><path fill="rgb(254,254,254)" stroke="rgb(254,254,254)" stroke-width="1" opacity="1" d="M 171.5 243 L 182 243.5 L 171.5 244 L 171.5 243 Z " /><path fill="rgb(254,254,254)" stroke="rgb(254,254,254)" stroke-width="1" opacity="1" d="M 166.5 245 L 171 248.5 L 168.5 247 L 166.5 245 Z " /><path fill="rgb(254,254,254)" stroke="rgb(254,254,254)" stroke-width="1" opacity="1" d="M 191.5 245 L 194 245.5 L 191.5 246 L 191.5 245 Z " /><path fill="rgb(254,254,254)" stroke="rgb(254,254,254)" stroke-width="1" opacity="1" d="M 256.5 245 L 259 245.5 L 256.5 246 L 256.5 245 Z " /><path fill="rgb(254,254,254)" stroke="rgb(254,254,254)" stroke-width="1" opacity="1" d="M 278.5 245 L 281 245.5 L 278.5 246 L 278.5 245 Z " /><path fill="rgb(254,254,254)" stroke="rgb(254,254,254)" stroke-width="1" opacity="1" d="M 141.5 247 L 151.5 258 L 141.5 247 Z " /><path fill="rgb(254,254,254)" stroke="rgb(254,254,254)" stroke-width="1" opacity="1" d="M 181.5 247 L 184 247.5 L 181.5 248 L 181.5 247 Z " /><path fill="rgb(254,254,254)" stroke="rgb(254,254,254)" stroke-width="1" opacity="1" d="M 262.5 249 L 261.5 251 L 259.5 252 L 260.5 250 L 262.5 249 Z " /><path fill="rgb(254,254,254)" stroke="rgb(254,254,254)" stroke-width="1" opacity="1" d="M 184.5 251 L 187 251.5 L 184.5 252 L 184.5 251 Z " /><path fill="rgb(254,254,254)" stroke="rgb(254,254,254)" stroke-width="1" opacity="1" d="M 213.5 251 L 216 251.5 L 213.5 252 L 213.5 251 Z " /><path fill="rgb(254,254,254)" stroke="rgb(254,254,254)" stroke-width="1" opacity="1" d="M 257.5 252 L 255.5 255 L 257.5 252 Z " /><path fill="rgb(254,254,254)" stroke="rgb(254,254,254)" stroke-width="1" opacity="1" d="M 194.5 253 L 205 253.5 L 194.5 254 L 194.5 253 Z " /><path fill="rgb(254,254,254)" stroke="rgb(254,254,254)" stroke-width="1" opacity="1" d="M 253.5 255 L 252.5 257 L 253.5 255 Z " /><path fill="rgb(254,254,254)" stroke="rgb(254,254,254)" stroke-width="1" opacity="1" d="M 155.5 259 L 157.5 262 L 155.5 259 Z " /><path fill="rgb(254,254,254)" stroke="rgb(254,254,254)" stroke-width="1" opacity="1" d="M 243.5 261 L 242.5 263 L 243.5 261 Z " /><path fill="rgb(254,254,254)" stroke="rgb(254,254,254)" stroke-width="1" opacity="1" d="M 165.5 265 L 169 266.5 L 167.5 267 L 165.5 265 Z " /><path fill="rgb(254,254,254)" stroke="rgb(254,254,254)" stroke-width="1" opacity="1" d="M 223.5 269 L 226 269.5 L 223.5 270 L 223.5 269 Z " /><path fill="rgb(254,254,254)" stroke="rgb(254,254,254)" stroke-width="1" opacity="1" d="M 178.5 270 L 181 270.5 L 178.5 271 L 178.5 270 Z " /><path fill="rgb(254,254,254)" stroke="rgb(254,254,254)" stroke-width="1" opacity="1" d="M 219.5 270 L 222 270.5 L 219.5 271 L 219.5 270 Z " /><path fill="rgb(254,254,254)" stroke="rgb(254,254,254)" stroke-width="1" opacity="1" d="M 184.5 271 L 190 271.5 L 184.5 272 L 184.5 271 Z " /><path fill="rgb(254,254,254)" stroke="rgb(254,254,254)" stroke-width="1" opacity="1" d="M 212.5 271 L 216 271.5 L 212.5 272 L 212.5 271 Z " /><path fill="rgb(255,255,255)" stroke="rgb(255,255,255)" stroke-width="1" opacity="1" d="M 218.5 48 L 245.5 51 L 267.5 58 Q 294.7 69.8 313 90.5 Q 329.1 107.9 338 132.5 L 344 157.5 L 345 184.5 L 341 207.5 Q 336.3 224.8 328 238.5 L 233 394.5 L 220.5 410 L 217.5 410 L 214 408 L 113 244.5 L 102 223.5 L 97 209.5 L 93 189.5 L 93 158.5 Q 101.4 110.9 130.5 84 Q 146.2 68.7 167.5 59 L 191.5 51 L 202.5 50 L 203.5 49 L 217.5 49 L 218.5 48 Z M 217 71 L 217 217 L 219 218 L 233 218 L 235 217 L 235 89 L 229 82 L 227 80 L 223 76 L 217 71 Z M 208 93 L 199 100 Q 196 99 197 102 L 186 110 Q 183 109 184 112 L 180 113 L 180 117 L 185 124 L 198 132 L 211 135 L 211 126 L 205 115 L 205 105 L 209 96 Q 210 92 208 93 Z M 280 96 L 277 99 L 260 108 L 250 121 L 250 123 L 239 133 Q 236 132 237 135 L 253 135 L 265 132 L 274 126 L 281 117 L 283 112 L 283 100 L 282 99 Q 283 95 280 96 Z M 164 135 L 148 140 Q 136 146 134 163 L 134 165 Q 134 174 138 180 L 149 189 L 172 198 L 181 203 Q 186 207 188 215 L 187 222 Q 185 223 188 224 L 200 219 Q 205 220 207 218 L 208 214 L 207 206 L 202 195 L 199 192 L 197 190 L 183 180 L 177 179 L 157 170 Q 155 167 156 159 L 166 154 L 175 154 L 177 154 L 184 156 Q 189 157 189 156 L 189 138 L 181 136 L 164 135 Z M 196 139 L 194 141 L 194 182 L 205 194 Q 204 196 207 195 L 207 140 L 207 139 L 196 139 Z M 242 139 L 242 217 Q 243 219 247 218 L 250 215 L 251 175 L 270 217 L 271 218 L 304 218 L 305 212 L 304 209 L 304 201 L 305 200 L 304 197 L 305 179 L 305 177 L 304 174 L 304 172 L 305 169 L 304 159 L 304 157 L 305 155 Q 306 150 304 149 Q 302 142 305 141 L 304 139 L 287 139 L 287 206 L 259 148 L 259 146 L 263 142 L 257 139 L 242 139 Z M 144 196 Q 134 203 130 217 Q 129 227 132 233 L 141 248 Q 151 260 168 267 L 185 272 L 203 272 L 204 273 L 205 272 L 216 272 L 229 269 L 243 263 L 262 251 L 263 248 L 251 242 L 235 251 L 212 258 L 195 258 L 184 255 L 175 251 L 159 239 Q 148 227 144 210 L 144 201 L 145 200 Q 146 195 144 196 Z M 215 221 L 194 226 L 182 232 L 168 235 L 164 234 L 162 237 L 172 244 L 186 243 L 215 232 L 234 232 L 239 233 L 262 244 L 272 246 L 286 245 L 294 240 L 277 237 L 267 232 L 264 232 L 252 225 Q 245 225 241 222 Q 236 223 235 221 L 215 221 Z M 261 222 L 260 223 Q 257 222 258 225 L 274 232 L 282 234 Q 291 235 296 232 L 303 224 L 302 222 L 261 222 Z M 220 236 L 208 239 L 196 245 Q 189 244 187 247 L 181 247 L 181 250 L 185 252 L 195 254 L 205 254 L 220 251 L 242 242 L 243 240 Q 235 234 220 236 Z " /></svg>