<svg width="438" height="472" version="1.1" xmlns="http://www.w3.org/2000/svg" desc="Created with imagetracer.js version 1.2.6" ><path fill="rgb(217,222,226)" stroke="rgb(217,222,226)" stroke-width="1" opacity="1" d="M 216 58 L 223 63.5 L 217 59.5 L 217 220.5 L 217.5 221 L 234 221 L 234 76.5 L 225 67.5 L 235 76.5 L 235 221.5 L 234.5 222 L 216 222 L 216 58 Z " /><path fill="rgb(217,222,226)" stroke="rgb(217,222,226)" stroke-width="1" opacity="1" d="M 205.5 82 L 206 84.5 L 203.5 85 L 187.5 97 L 189.5 94 L 205.5 82 Z " /><path fill="rgb(217,222,226)" stroke="rgb(217,222,226)" stroke-width="1" opacity="1" d="M 286.5 86 Q 290.3 84.8 289 88.5 L 288 88.5 Q 288.8 86.3 286.5 87 L 274.5 94 L 274.5 93 L 286.5 86 Z " /><path fill="rgb(217,222,226)" stroke="rgb(217,222,226)" stroke-width="1" opacity="1" d="M 289.5 90 L 290 100.5 L 289 100.5 L 289.5 90 Z " /><path fill="rgb(217,222,226)" stroke="rgb(217,222,226)" stroke-width="1" opacity="1" d="M 270.5 95 L 269.5 97 L 263.5 102 L 268.5 96 L 270.5 95 Z " /><path fill="rgb(217,222,226)" stroke="rgb(217,222,226)" stroke-width="1" opacity="1" d="M 201.5 96 L 202 103.5 L 201 103.5 L 201.5 96 Z " /><path fill="rgb(217,222,226)" stroke="rgb(217,222,226)" stroke-width="1" opacity="1" d="M 185.5 97 L 183.5 100 L 185.5 97 Z " /><path fill="rgb(217,222,226)" stroke="rgb(217,222,226)" stroke-width="1" opacity="1" d="M 181.5 100 L 179.5 103 L 181.5 100 Z " /><path fill="rgb(217,222,226)" stroke="rgb(217,222,226)" stroke-width="1" opacity="1" d="M 288.5 102 L 289 104.5 L 287.5 107 L 287 105.5 L 288.5 102 Z " /><path fill="rgb(217,222,226)" stroke="rgb(217,222,226)" stroke-width="1" opacity="1" d="M 177.5 103 L 175 106.5 L 178 111.5 L 175 109.5 L 174 106.5 L 177.5 103 Z " /><path fill="rgb(217,222,226)" stroke="rgb(217,222,226)" stroke-width="1" opacity="1" d="M 261.5 103 L 259.5 106 L 261.5 103 Z " /><path fill="rgb(217,222,226)" stroke="rgb(217,222,226)" stroke-width="1" opacity="1" d="M 258.5 107 L 257.5 109 L 258.5 107 Z " /><path fill="rgb(217,222,226)" stroke="rgb(217,222,226)" stroke-width="1" opacity="1" d="M 285.5 110 L 284.5 112 L 285.5 110 Z " /><path fill="rgb(217,222,226)" stroke="rgb(217,222,226)" stroke-width="1" opacity="1" d="M 178.5 113 L 182.5 118 L 178.5 113 Z " /><path fill="rgb(217,222,226)" stroke="rgb(217,222,226)" stroke-width="1" opacity="1" d="M 283.5 113 L 277.5 120 L 283.5 113 Z " /><path fill="rgb(217,222,226)" stroke="rgb(217,222,226)" stroke-width="1" opacity="1" d="M 253.5 115 L 252.5 117 L 253.5 115 Z " /><path fill="rgb(217,222,226)" stroke="rgb(217,222,226)" stroke-width="1" opacity="1" d="M 206.5 116 L 207.5 118 L 206.5 116 Z " /><path fill="rgb(217,222,226)" stroke="rgb(217,222,226)" stroke-width="1" opacity="1" d="M 185.5 119 L 186.5 121 L 185.5 119 Z " /><path fill="rgb(217,222,226)" stroke="rgb(217,222,226)" stroke-width="1" opacity="1" d="M 208.5 119 L 209 127.5 L 206.5 129 L 206.5 128 L 208 127.5 L 208.5 119 Z " /><path fill="rgb(217,222,226)" stroke="rgb(217,222,226)" stroke-width="1" opacity="1" d="M 250.5 119 L 246.5 124 L 250.5 119 Z " /><path fill="rgb(217,222,226)" stroke="rgb(217,222,226)" stroke-width="1" opacity="1" d="M 275.5 120 L 274.5 122 L 275.5 120 Z " /><path fill="rgb(217,222,226)" stroke="rgb(217,222,226)" stroke-width="1" opacity="1" d="M 243.5 125 L 242.5 127 L 243.5 125 Z " /><path fill="rgb(217,222,226)" stroke="rgb(217,222,226)" stroke-width="1" opacity="1" d="M 240.5 127 L 239.5 129 L 240.5 127 Z " /><path fill="rgb(217,222,226)" stroke="rgb(217,222,226)" stroke-width="1" opacity="1" d="M 252.5 128 L 255 128.5 L 252.5 129 L 252.5 128 Z " /><path fill="rgb(217,222,226)" stroke="rgb(217,222,226)" stroke-width="1" opacity="1" d="M 154.5 130 L 166 130.5 L 154.5 131 L 154.5 130 Z " /><path fill="rgb(217,222,226)" stroke="rgb(217,222,226)" stroke-width="1" opacity="1" d="M 148.5 131 L 152 131.5 L 148.5 132 L 148.5 131 Z " /><path fill="rgb(217,222,226)" stroke="rgb(217,222,226)" stroke-width="1" opacity="1" d="M 168.5 131 L 175 131.5 L 168.5 132 L 168.5 131 Z " /><path fill="rgb(217,222,226)" stroke="rgb(217,222,226)" stroke-width="1" opacity="1" d="M 176.5 132 L 181 132.5 L 176.5 133 L 176.5 132 Z " /><path fill="rgb(217,222,226)" stroke="rgb(217,222,226)" stroke-width="1" opacity="1" d="M 142.5 133 L 144 133.5 L 137 137.5 L 138.5 138 L 144.5 135 L 144.5 136 Q 135.9 138.4 132 145.5 L 127.5 154 L 127 152.5 L 129 147 Q 132 148.3 131 144.5 L 136.5 138 L 129.5 144 L 135.5 137 L 142.5 133 Z " /><path fill="rgb(217,222,226)" stroke="rgb(217,222,226)" stroke-width="1" opacity="1" d="M 182.5 133 L 184 134.5 L 184 151.5 Q 183.3 153.8 179.5 153 L 179.5 152 L 183 151.5 L 183 134.5 L 182.5 133 Z " /><path fill="rgb(217,222,226)" stroke="rgb(217,222,226)" stroke-width="1" opacity="1" d="M 191.5 134 L 204 134.5 L 191.5 135 L 191.5 134 Z " /><path fill="rgb(217,222,226)" stroke="rgb(217,222,226)" stroke-width="1" opacity="1" d="M 245.5 134 L 253 134.5 L 245 135 L 244.5 137 L 244 135.5 L 245.5 134 Z " /><path fill="rgb(217,222,226)" stroke="rgb(217,222,226)" stroke-width="1" opacity="1" d="M 296.5 134 L 314 134.5 L 296 135 L 295.5 214 L 292 207.5 L 293 207.5 L 294.5 211 L 295 135.5 L 296.5 134 Z " /><path fill="rgb(217,222,226)" stroke="rgb(217,222,226)" stroke-width="1" opacity="1" d="M 254.5 135 L 265.5 135 L 266 137.5 L 263 139.5 L 265 136 L 254.5 136 L 254.5 135 Z " /><path fill="rgb(217,222,226)" stroke="rgb(217,222,226)" stroke-width="1" opacity="1" d="M 262.5 141 L 263 143.5 L 262 143.5 L 262.5 141 Z " /><path fill="rgb(217,222,226)" stroke="rgb(217,222,226)" stroke-width="1" opacity="1" d="M 128.5 145 L 127.5 147 L 128.5 145 Z " /><path fill="rgb(217,222,226)" stroke="rgb(217,222,226)" stroke-width="1" opacity="1" d="M 158.5 150 L 168 150.5 L 158.5 151 L 158.5 150 Z " /><path fill="rgb(217,222,226)" stroke="rgb(217,222,226)" stroke-width="1" opacity="1" d="M 153.5 151 L 156 151.5 L 148 155 L 146.5 158 L 147 156.5 L 148.5 154 L 153.5 151 Z " /><path fill="rgb(217,222,226)" stroke="rgb(217,222,226)" stroke-width="1" opacity="1" d="M 172.5 151 L 176 151.5 L 172.5 152 L 172.5 151 Z " /><path fill="rgb(217,222,226)" stroke="rgb(217,222,226)" stroke-width="1" opacity="1" d="M 123.5 156 L 124 159.5 L 123 159.5 L 123.5 156 Z " /><path fill="rgb(217,222,226)" stroke="rgb(217,222,226)" stroke-width="1" opacity="1" d="M 123.5 167 L 124 169.5 L 123 169.5 L 123.5 167 Z " /><path fill="rgb(217,222,226)" stroke="rgb(217,222,226)" stroke-width="1" opacity="1" d="M 147.5 168 L 148.5 170 L 147.5 168 Z " /><path fill="rgb(217,222,226)" stroke="rgb(217,222,226)" stroke-width="1" opacity="1" d="M 126.5 177 L 127.5 179 L 126.5 177 Z " /><path fill="rgb(217,222,226)" stroke="rgb(217,222,226)" stroke-width="1" opacity="1" d="M 128.5 180 L 134.5 187 L 128.5 180 Z " /><path fill="rgb(217,222,226)" stroke="rgb(217,222,226)" stroke-width="1" opacity="1" d="M 182.5 184 L 183.5 186 L 182.5 184 Z " /><path fill="rgb(217,222,226)" stroke="rgb(217,222,226)" stroke-width="1" opacity="1" d="M 194.5 185 L 197.5 189 L 194.5 185 Z " /><path fill="rgb(217,222,226)" stroke="rgb(217,222,226)" stroke-width="1" opacity="1" d="M 187.5 187 L 189.5 190 L 187.5 187 Z " /><path fill="rgb(217,222,226)" stroke="rgb(217,222,226)" stroke-width="1" opacity="1" d="M 191.5 190 L 195.5 195 L 191.5 190 Z " /><path fill="rgb(217,222,226)" stroke="rgb(217,222,226)" stroke-width="1" opacity="1" d="M 199.5 191 L 201.5 194 L 199.5 191 Z " /><path fill="rgb(217,222,226)" stroke="rgb(217,222,226)" stroke-width="1" opacity="1" d="M 263.5 193 L 266 198.5 L 265 198.5 L 263.5 193 Z " /><path fill="rgb(217,222,226)" stroke="rgb(217,222,226)" stroke-width="1" opacity="1" d="M 286.5 194 L 289 199.5 L 288 199.5 L 286.5 194 Z " /><path fill="rgb(217,222,226)" stroke="rgb(217,222,226)" stroke-width="1" opacity="1" d="M 196.5 196 L 198.5 199 L 196.5 196 Z " /><path fill="rgb(217,222,226)" stroke="rgb(217,222,226)" stroke-width="1" opacity="1" d="M 133.5 198 L 134 200.5 L 132.5 200 L 127 204.5 L 133.5 198 Z " /><path fill="rgb(217,222,226)" stroke="rgb(217,222,226)" stroke-width="1" opacity="1" d="M 266.5 200 L 277 221.5 L 275 220.5 L 266 201.5 L 266.5 200 Z " /><path fill="rgb(217,222,226)" stroke="rgb(217,222,226)" stroke-width="1" opacity="1" d="M 173.5 204 L 175.5 207 L 173.5 204 Z " /><path fill="rgb(217,222,226)" stroke="rgb(217,222,226)" stroke-width="1" opacity="1" d="M 126.5 206 L 125.5 208 L 126.5 206 Z " /><path fill="rgb(217,222,226)" stroke="rgb(217,222,226)" stroke-width="1" opacity="1" d="M 124.5 209 L 123.5 211 L 124.5 209 Z " /><path fill="rgb(217,222,226)" stroke="rgb(217,222,226)" stroke-width="1" opacity="1" d="M 179.5 210 L 180.5 212 L 179.5 210 Z " /><path fill="rgb(217,222,226)" stroke="rgb(217,222,226)" stroke-width="1" opacity="1" d="M 244.5 213 L 245 218.5 L 244 218.5 L 244.5 213 Z " /><path fill="rgb(217,222,226)" stroke="rgb(217,222,226)" stroke-width="1" opacity="1" d="M 183.5 219 L 184 221.5 L 183 221.5 L 183.5 219 Z " /><path fill="rgb(217,222,226)" stroke="rgb(217,222,226)" stroke-width="1" opacity="1" d="M 250.5 220 L 249.5 222 L 250.5 220 Z " /><path fill="rgb(217,222,226)" stroke="rgb(217,222,226)" stroke-width="1" opacity="1" d="M 245.5 221 L 248 222.5 L 246.5 223 L 245.5 221 Z " /><path fill="rgb(217,222,226)" stroke="rgb(217,222,226)" stroke-width="1" opacity="1" d="M 118.5 222 L 119 231.5 L 118 231.5 L 118.5 222 Z " /><path fill="rgb(217,222,226)" stroke="rgb(217,222,226)" stroke-width="1" opacity="1" d="M 201.5 222 L 204 222.5 L 197.5 224 L 197.5 223 L 201.5 222 Z " /><path fill="rgb(217,222,226)" stroke="rgb(217,222,226)" stroke-width="1" opacity="1" d="M 193.5 224 L 196 224.5 L 182.5 229 L 182.5 228 L 193.5 224 Z " /><path fill="rgb(217,222,226)" stroke="rgb(217,222,226)" stroke-width="1" opacity="1" d="M 215.5 227 L 232.5 227 L 241 228.5 L 233.5 229 L 232.5 228 L 215.5 228 L 196.5 232 L 196.5 231 L 215.5 227 Z " /><path fill="rgb(217,222,226)" stroke="rgb(217,222,226)" stroke-width="1" opacity="1" d="M 242.5 229 L 246 229.5 L 242.5 230 L 242.5 229 Z " /><path fill="rgb(217,222,226)" stroke="rgb(217,222,226)" stroke-width="1" opacity="1" d="M 263.5 229 L 278 236.5 L 276.5 237 L 263 231 L 263.5 229 Z " /><path fill="rgb(217,222,226)" stroke="rgb(217,222,226)" stroke-width="1" opacity="1" d="M 311.5 229 L 311 230.5 L 306.5 237 L 300.5 240 L 300.5 239 Q 307.4 237.4 310 231.5 L 311.5 229 Z " /><path fill="rgb(217,222,226)" stroke="rgb(217,222,226)" stroke-width="1" opacity="1" d="M 287.5 230 L 293 230.5 L 287.5 231 L 287.5 230 Z " /><path fill="rgb(217,222,226)" stroke="rgb(217,222,226)" stroke-width="1" opacity="1" d="M 140.5 235 L 141.5 237 L 140.5 235 Z " /><path fill="rgb(217,222,226)" stroke="rgb(217,222,226)" stroke-width="1" opacity="1" d="M 220.5 237 L 229 237.5 L 220.5 238 L 220.5 237 Z " /><path fill="rgb(217,222,226)" stroke="rgb(217,222,226)" stroke-width="1" opacity="1" d="M 213.5 238 L 217 238.5 L 213.5 239 L 213.5 238 Z " /><path fill="rgb(217,222,226)" stroke="rgb(217,222,226)" stroke-width="1" opacity="1" d="M 232.5 238 L 236 238.5 L 232.5 239 L 232.5 238 Z " /><path fill="rgb(217,222,226)" stroke="rgb(217,222,226)" stroke-width="1" opacity="1" d="M 208.5 239 L 211 239.5 L 208.5 240 L 208.5 239 Z " /><path fill="rgb(217,222,226)" stroke="rgb(217,222,226)" stroke-width="1" opacity="1" d="M 289.5 240 L 299 240.5 L 289.5 241 L 289.5 240 Z " /><path fill="rgb(217,222,226)" stroke="rgb(217,222,226)" stroke-width="1" opacity="1" d="M 144.5 241 L 145.5 243 L 144.5 241 Z " /><path fill="rgb(217,222,226)" stroke="rgb(217,222,226)" stroke-width="1" opacity="1" d="M 122.5 242 L 124 244.5 L 122 243.5 L 122.5 242 Z " /><path fill="rgb(217,222,226)" stroke="rgb(217,222,226)" stroke-width="1" opacity="1" d="M 154.5 243 L 164 250.5 L 162.5 251 L 154 244.5 L 154.5 243 Z " /><path fill="rgb(217,222,226)" stroke="rgb(217,222,226)" stroke-width="1" opacity="1" d="M 220.5 244 L 233 244.5 L 220.5 245 L 220.5 244 Z " /><path fill="rgb(217,222,226)" stroke="rgb(217,222,226)" stroke-width="1" opacity="1" d="M 220.5 246 L 229 246.5 L 220.5 247 L 220.5 246 Z " /><path fill="rgb(217,222,226)" stroke="rgb(217,222,226)" stroke-width="1" opacity="1" d="M 289.5 246 L 292 246.5 L 289.5 247 L 289.5 246 Z " /><path fill="rgb(217,222,226)" stroke="rgb(217,222,226)" stroke-width="1" opacity="1" d="M 149.5 247 L 153.5 252 L 149.5 247 Z " /><path fill="rgb(217,222,226)" stroke="rgb(217,222,226)" stroke-width="1" opacity="1" d="M 244.5 247 L 243.5 249 L 244.5 247 Z " /><path fill="rgb(217,222,226)" stroke="rgb(217,222,226)" stroke-width="1" opacity="1" d="M 301.5 247 L 300.5 249 L 301.5 247 Z " /><path fill="rgb(217,222,226)" stroke="rgb(217,222,226)" stroke-width="1" opacity="1" d="M 204.5 248 L 206 248.5 L 202.5 250 L 202.5 249 L 204.5 248 Z " /><path fill="rgb(217,222,226)" stroke="rgb(217,222,226)" stroke-width="1" opacity="1" d="M 298.5 249 L 297.5 251 L 298.5 249 Z " /><path fill="rgb(217,222,226)" stroke="rgb(217,222,226)" stroke-width="1" opacity="1" d="M 126.5 250 L 127.5 252 L 126.5 250 Z " /><path fill="rgb(217,222,226)" stroke="rgb(217,222,226)" stroke-width="1" opacity="1" d="M 176.5 250 L 179 250.5 L 176.5 251 L 176.5 250 Z " /><path fill="rgb(217,222,226)" stroke="rgb(217,222,226)" stroke-width="1" opacity="1" d="M 199.5 250 L 201 250.5 L 196.5 253 L 175.5 259 L 176.5 257 Q 190.1 255.6 199.5 250 Z " /><path fill="rgb(217,222,226)" stroke="rgb(217,222,226)" stroke-width="1" opacity="1" d="M 165.5 251 L 174 251.5 L 165.5 252 L 165.5 251 Z " /><path fill="rgb(217,222,226)" stroke="rgb(217,222,226)" stroke-width="1" opacity="1" d="M 252.5 251 L 264.5 255 L 268 257.5 L 266 258.5 L 266.5 257 L 252.5 252 L 247.5 255 L 248.5 253 L 252.5 251 Z " /><path fill="rgb(217,222,226)" stroke="rgb(217,222,226)" stroke-width="1" opacity="1" d="M 155.5 252 Q 165.9 262.1 182 266.5 L 179.5 267 Q 163.9 262 155.5 252 Z " /><path fill="rgb(217,222,226)" stroke="rgb(217,222,226)" stroke-width="1" opacity="1" d="M 273.5 253 L 276 253.5 L 273.5 254 L 273.5 253 Z " /><path fill="rgb(217,222,226)" stroke="rgb(217,222,226)" stroke-width="1" opacity="1" d="M 129.5 254 L 131.5 257 L 129.5 254 Z " /><path fill="rgb(217,222,226)" stroke="rgb(217,222,226)" stroke-width="1" opacity="1" d="M 280.5 254 L 284 254.5 L 280.5 255 L 280.5 254 Z " /><path fill="rgb(217,222,226)" stroke="rgb(217,222,226)" stroke-width="1" opacity="1" d="M 245.5 255 L 244.5 257 L 235.5 261 L 235.5 260 L 245.5 255 Z " /><path fill="rgb(217,222,226)" stroke="rgb(217,222,226)" stroke-width="1" opacity="1" d="M 133.5 259 L 138.5 265 L 133.5 259 Z " /><path fill="rgb(217,222,226)" stroke="rgb(217,222,226)" stroke-width="1" opacity="1" d="M 264.5 259 L 262.5 262 L 264.5 259 Z " /><path fill="rgb(217,222,226)" stroke="rgb(217,222,226)" stroke-width="1" opacity="1" d="M 182.5 261 L 185 261.5 L 182.5 262 L 182.5 261 Z " /><path fill="rgb(217,222,226)" stroke="rgb(217,222,226)" stroke-width="1" opacity="1" d="M 208.5 261 L 211 261.5 L 208.5 262 L 208.5 261 Z " /><path fill="rgb(217,222,226)" stroke="rgb(217,222,226)" stroke-width="1" opacity="1" d="M 232.5 261 L 234 261.5 L 216.5 268 L 201.5 269 L 201.5 268 Q 221 268.5 232.5 261 Z " /><path fill="rgb(217,222,226)" stroke="rgb(217,222,226)" stroke-width="1" opacity="1" d="M 187.5 262 L 191 262.5 L 187.5 263 L 187.5 262 Z " /><path fill="rgb(217,222,226)" stroke="rgb(217,222,226)" stroke-width="1" opacity="1" d="M 201.5 262 L 205 262.5 L 201.5 263 L 201.5 262 Z " /><path fill="rgb(217,222,226)" stroke="rgb(217,222,226)" stroke-width="1" opacity="1" d="M 260.5 262 L 259.5 264 L 260.5 262 Z " /><path fill="rgb(217,222,226)" stroke="rgb(217,222,226)" stroke-width="1" opacity="1" d="M 257.5 264 L 256.5 266 L 257.5 264 Z " /><path fill="rgb(217,222,226)" stroke="rgb(217,222,226)" stroke-width="1" opacity="1" d="M 140.5 265 Q 157.2 280.8 187 283.5 L 179.5 284 Q 154.3 279.3 140.5 265 Z " /><path fill="rgb(217,222,226)" stroke="rgb(217,222,226)" stroke-width="1" opacity="1" d="M 254.5 266 L 253.5 268 L 254.5 266 Z " /><path fill="rgb(217,222,226)" stroke="rgb(217,222,226)" stroke-width="1" opacity="1" d="M 183.5 267 L 187 267.5 L 183.5 268 L 183.5 267 Z " /><path fill="rgb(217,222,226)" stroke="rgb(217,222,226)" stroke-width="1" opacity="1" d="M 188.5 268 L 198 268.5 L 188.5 269 L 188.5 268 Z " /><path fill="rgb(217,222,226)" stroke="rgb(217,222,226)" stroke-width="1" opacity="1" d="M 249.5 269 L 248.5 271 L 249.5 269 Z " /><path fill="rgb(217,222,226)" stroke="rgb(217,222,226)" stroke-width="1" opacity="1" d="M 244.5 272 L 243.5 274 L 240.5 275 L 240.5 274 L 244.5 272 Z " /><path fill="rgb(217,222,226)" stroke="rgb(217,222,226)" stroke-width="1" opacity="1" d="M 235.5 276 L 237 276.5 L 233.5 278 L 233.5 277 L 235.5 276 Z " /><path fill="rgb(217,222,226)" stroke="rgb(217,222,226)" stroke-width="1" opacity="1" d="M 230.5 278 L 232 278.5 L 224.5 281 L 224.5 280 L 230.5 278 Z " /><path fill="rgb(217,222,226)" stroke="rgb(217,222,226)" stroke-width="1" opacity="1" d="M 219.5 281 L 223 281.5 L 214.5 283 L 214.5 282 L 219.5 281 Z " /><path fill="rgb(217,222,226)" stroke="rgb(217,222,226)" stroke-width="1" opacity="1" d="M 207.5 283 L 213 283.5 L 207.5 284 L 207.5 283 Z " /><path fill="rgb(217,222,226)" stroke="rgb(217,222,226)" stroke-width="1" opacity="1" d="M 188.5 284 L 206 284.5 L 188.5 285 L 188.5 284 Z " /><path fill="rgb(0,0,0)" stroke="rgb(0,0,0)" stroke-width="1" opacity="0" d="M 0 0 L 438 0 L 438 472 L 0 472 L 0 0 Z M 214 41 L 213 42 L 196 43 L 173 49 Q 148 58 131 74 Q 112 90 100 113 L 89 141 L 86 156 L 86 164 L 85 165 L 85 183 L 86 184 L 86 193 L 88 204 Q 93 224 102 241 L 204 408 L 217 423 L 223 422 L 235 406 L 337 238 L 347 213 L 352 186 L 351 158 L 350 157 L 349 146 L 344 129 Q 335 104 319 87 Q 301 66 275 53 L 259 47 L 243 43 L 226 42 L 225 41 L 214 41 Z " /><path fill="rgb(254,254,254)" stroke="rgb(254,254,254)" stroke-width="1" opacity="0.9882352941176471" d="M 213.5 41 L 225 41.5 L 213.5 42 L 213.5 41 Z " /><path fill="rgb(254,254,254)" stroke="rgb(254,254,254)" stroke-width="1" opacity="0.9882352941176471" d="M 201.5 42 L 211 42.5 L 201.5 43 L 201.5 42 Z " /><path fill="rgb(254,254,254)" stroke="rgb(254,254,254)" stroke-width="1" opacity="0.9882352941176471" d="M 226.5 42 L 236 42.5 L 226.5 43 L 226.5 42 Z " /><path fill="rgb(254,254,254)" stroke="rgb(254,254,254)" stroke-width="1" opacity="0.9882352941176471" d="M 195.5 43 L 200 43.5 L 195.5 44 L 195.5 43 Z " /><path fill="rgb(254,254,254)" stroke="rgb(254,254,254)" stroke-width="1" opacity="0.9882352941176471" d="M 237.5 43 L 247 44.5 L 243.5 45 Q 242.3 42.7 237.5 44 L 237.5 43 Z " /><path fill="rgb(254,254,254)" stroke="rgb(254,254,254)" stroke-width="1" opacity="0.9882352941176471" d="M 190.5 44 L 194 44.5 Q 170.5 48.5 153.5 59 Q 131.5 71.5 116 90.5 Q 103.2 105.7 95 125.5 L 89.5 144 L 89 140.5 Q 101.3 98.8 130.5 74 L 158.5 55 Q 172.7 47.7 190.5 44 Z " /><path fill="rgb(254,254,254)" stroke="rgb(254,254,254)" stroke-width="1" opacity="0.9882352941176471" d="M 248.5 45 L 264.5 49 L 287.5 60 Q 305.4 71.1 319 86.5 Q 337.5 106.5 346 136.5 L 345 136.5 Q 341 120 333 107.5 Q 320.6 86.9 302.5 72 L 285.5 60 L 264.5 50 L 248.5 46 L 248.5 45 Z " /><path fill="rgb(254,254,254)" stroke="rgb(254,254,254)" stroke-width="1" opacity="0.9882352941176471" d="M 216.5 57 L 219 58.5 L 217.5 58 L 216 58.5 L 216 221.5 L 215 221.5 L 215 58.5 L 216.5 57 Z " /><path fill="rgb(254,254,254)" stroke="rgb(254,254,254)" stroke-width="1" opacity="0.9882352941176471" d="M 223.5 64 L 236 76.5 L 236 221.5 L 234.5 223 L 217.5 223 L 217.5 222 L 234.5 222 L 235 221.5 L 235 76.5 L 223.5 64 Z " /><path fill="rgb(254,254,254)" stroke="rgb(254,254,254)" stroke-width="1" opacity="0.9882352941176471" d="M 204.5 82 L 203.5 84 L 194.5 91 L 197.5 87 L 204.5 82 Z " /><path fill="rgb(254,254,254)" stroke="rgb(254,254,254)" stroke-width="1" opacity="0.9882352941176471" d="M 286.5 85 L 289 85.5 L 285.5 87 L 286.5 85 Z " /><path fill="rgb(254,254,254)" stroke="rgb(254,254,254)" stroke-width="1" opacity="0.9882352941176471" d="M 289.5 87 L 290 89.5 L 289 89.5 L 289.5 87 Z " /><path fill="rgb(254,254,254)" stroke="rgb(254,254,254)" stroke-width="1" opacity="0.9882352941176471" d="M 282.5 88 L 281.5 90 L 282.5 88 Z " /><path fill="rgb(254,254,254)" stroke="rgb(254,254,254)" stroke-width="1" opacity="0.9882352941176471" d="M 191.5 92 L 190.5 94 L 191.5 92 Z " /><path fill="rgb(254,254,254)" stroke="rgb(254,254,254)" stroke-width="1" opacity="0.9882352941176471" d="M 274.5 92 L 276 92.5 L 269.5 96 L 270.5 94 L 274.5 92 Z " /><path fill="rgb(254,254,254)" stroke="rgb(254,254,254)" stroke-width="1" opacity="0.9882352941176471" d="M 290.5 93 L 291 97.5 L 290 97.5 L 290.5 93 Z " /><path fill="rgb(254,254,254)" stroke="rgb(254,254,254)" stroke-width="1" opacity="0.9882352941176471" d="M 187.5 95 L 186.5 97 L 187.5 95 Z " /><path fill="rgb(254,254,254)" stroke="rgb(254,254,254)" stroke-width="1" opacity="0.9882352941176471" d="M 267.5 96 L 259 105.5 L 257.5 108 L 258 106.5 L 267.5 96 Z " /><path fill="rgb(254,254,254)" stroke="rgb(254,254,254)" stroke-width="1" opacity="0.9882352941176471" d="M 183.5 98 L 182.5 100 L 183.5 98 Z " /><path fill="rgb(254,254,254)" stroke="rgb(254,254,254)" stroke-width="1" opacity="0.9882352941176471" d="M 179.5 101 L 178.5 103 L 179.5 101 Z " /><path fill="rgb(254,254,254)" stroke="rgb(254,254,254)" stroke-width="1" opacity="0.9882352941176471" d="M 175.5 104 L 174.5 106 L 175.5 104 Z " /><path fill="rgb(254,254,254)" stroke="rgb(254,254,254)" stroke-width="1" opacity="0.9882352941176471" d="M 287.5 107 L 288 108.5 L 286 109.5 L 287.5 107 Z " /><path fill="rgb(254,254,254)" stroke="rgb(254,254,254)" stroke-width="1" opacity="0.9882352941176471" d="M 175.5 110 L 177.5 113 L 175.5 110 Z " /><path fill="rgb(254,254,254)" stroke="rgb(254,254,254)" stroke-width="1" opacity="0.9882352941176471" d="M 255.5 111 L 254.5 113 L 255.5 111 Z " /><path fill="rgb(254,254,254)" stroke="rgb(254,254,254)" stroke-width="1" opacity="0.9882352941176471" d="M 285.5 111 L 285 112.5 L 277.5 121 L 271.5 124 L 271.5 123 Q 279.6 120.1 284 113.5 L 285.5 111 Z " /><path fill="rgb(254,254,254)" stroke="rgb(254,254,254)" stroke-width="1" opacity="0.9882352941176471" d="M 205.5 114 L 207.5 117 L 205.5 114 Z " /><path fill="rgb(254,254,254)" stroke="rgb(254,254,254)" stroke-width="1" opacity="0.9882352941176471" d="M 179.5 115 L 180.5 117 L 179.5 115 Z " /><path fill="rgb(254,254,254)" stroke="rgb(254,254,254)" stroke-width="1" opacity="0.9882352941176471" d="M 251.5 117 L 250.5 119 L 251.5 117 Z " /><path fill="rgb(254,254,254)" stroke="rgb(254,254,254)" stroke-width="1" opacity="0.9882352941176471" d="M 183.5 118 L 185.5 121 L 183.5 118 Z " /><path fill="rgb(254,254,254)" stroke="rgb(254,254,254)" stroke-width="1" opacity="0.9882352941176471" d="M 187.5 121 L 192 123.5 L 190.5 124 L 187.5 121 Z " /><path fill="rgb(254,254,254)" stroke="rgb(254,254,254)" stroke-width="1" opacity="0.9882352941176471" d="M 245.5 123 L 244.5 125 L 245.5 123 Z " /><path fill="rgb(254,254,254)" stroke="rgb(254,254,254)" stroke-width="1" opacity="0.9882352941176471" d="M 242.5 125 L 241.5 127 L 239.5 128 L 240.5 126 L 242.5 125 Z " /><path fill="rgb(254,254,254)" stroke="rgb(254,254,254)" stroke-width="1" opacity="0.9882352941176471" d="M 157.5 129 L 162 129.5 L 157.5 130 L 157.5 129 Z " /><path fill="rgb(254,254,254)" stroke="rgb(254,254,254)" stroke-width="1" opacity="0.9882352941176471" d="M 149.5 130 L 154 130.5 L 149.5 131 L 149.5 130 Z " /><path fill="rgb(254,254,254)" stroke="rgb(254,254,254)" stroke-width="1" opacity="0.9882352941176471" d="M 166.5 130 L 173 130.5 L 166.5 131 L 166.5 130 Z " /><path fill="rgb(254,254,254)" stroke="rgb(254,254,254)" stroke-width="1" opacity="0.9882352941176471" d="M 145.5 131 L 148 131.5 L 143.5 133 L 143.5 132 L 145.5 131 Z " /><path fill="rgb(254,254,254)" stroke="rgb(254,254,254)" stroke-width="1" opacity="0.9882352941176471" d="M 175.5 131 L 180 131.5 L 175.5 132 L 175.5 131 Z " /><path fill="rgb(254,254,254)" stroke="rgb(254,254,254)" stroke-width="1" opacity="0.9882352941176471" d="M 181.5 132 Q 184.8 130.9 184 133.5 L 184.5 135 L 181.5 132 Z " /><path fill="rgb(254,254,254)" stroke="rgb(254,254,254)" stroke-width="1" opacity="0.9882352941176471" d="M 140.5 133 L 142 133.5 Q 134.8 136.3 130.5 142 L 135.5 136 L 140.5 133 Z " /><path fill="rgb(254,254,254)" stroke="rgb(254,254,254)" stroke-width="1" opacity="0.9882352941176471" d="M 191.5 133 L 204 133.5 L 191.5 134 L 191.5 133 Z " /><path fill="rgb(254,254,254)" stroke="rgb(254,254,254)" stroke-width="1" opacity="0.9882352941176471" d="M 245.5 133 L 249 133.5 L 244.5 135 L 245.5 133 Z " /><path fill="rgb(254,254,254)" stroke="rgb(254,254,254)" stroke-width="1" opacity="0.9882352941176471" d="M 296.5 133 L 313.5 133 L 315 134.5 L 315 223 L 275 223 L 274 219.5 L 275 219.5 L 276.5 222 L 314 222 L 314 134 L 296.5 134 L 295.5 135 L 296.5 133 Z " /><path fill="rgb(254,254,254)" stroke="rgb(254,254,254)" stroke-width="1" opacity="0.9882352941176471" d="M 253.5 134 L 261 134.5 L 253.5 135 L 253.5 134 Z " /><path fill="rgb(254,254,254)" stroke="rgb(254,254,254)" stroke-width="1" opacity="0.9882352941176471" d="M 190.5 135 L 191 181.5 L 190 181.5 L 190.5 135 Z " /><path fill="rgb(254,254,254)" stroke="rgb(254,254,254)" stroke-width="1" opacity="0.9882352941176471" d="M 244.5 137 L 245 212.5 L 244 212.5 L 244.5 137 Z " /><path fill="rgb(254,254,254)" stroke="rgb(254,254,254)" stroke-width="1" opacity="0.9882352941176471" d="M 346.5 138 Q 349.9 145.1 350 155.5 L 349 155.5 L 349 150.5 L 346.5 138 Z " /><path fill="rgb(254,254,254)" stroke="rgb(254,254,254)" stroke-width="1" opacity="0.9882352941176471" d="M 264.5 139 L 263.5 141 L 264.5 139 Z " /><path fill="rgb(254,254,254)" stroke="rgb(254,254,254)" stroke-width="1" opacity="0.9882352941176471" d="M 128.5 144 L 127.5 146 L 128.5 144 Z " /><path fill="rgb(254,254,254)" stroke="rgb(254,254,254)" stroke-width="1" opacity="0.9882352941176471" d="M 88.5 145 L 89 148.5 L 87.5 154 L 87 149.5 L 88.5 145 Z " /><path fill="rgb(254,254,254)" stroke="rgb(254,254,254)" stroke-width="1" opacity="0.9882352941176471" d="M 265.5 148 L 267 151.5 L 266 151.5 L 265.5 148 Z " /><path fill="rgb(254,254,254)" stroke="rgb(254,254,254)" stroke-width="1" opacity="0.9882352941176471" d="M 86.5 155 L 87 162.5 L 86 162.5 L 86.5 155 Z " /><path fill="rgb(254,254,254)" stroke="rgb(254,254,254)" stroke-width="1" opacity="0.9882352941176471" d="M 350.5 157 L 351 165.5 L 350 165.5 L 350.5 157 Z " /><path fill="rgb(254,254,254)" stroke="rgb(254,254,254)" stroke-width="1" opacity="0.9882352941176471" d="M 145.5 161 L 146 163.5 L 145 163.5 L 145.5 161 Z " /><path fill="rgb(254,254,254)" stroke="rgb(254,254,254)" stroke-width="1" opacity="0.9882352941176471" d="M 122.5 162 L 123 165.5 L 122 165.5 L 122.5 162 Z " /><path fill="rgb(254,254,254)" stroke="rgb(254,254,254)" stroke-width="1" opacity="0.9882352941176471" d="M 272.5 163 L 275 168.5 L 274 168.5 L 272.5 163 Z " /><path fill="rgb(254,254,254)" stroke="rgb(254,254,254)" stroke-width="1" opacity="0.9882352941176471" d="M 85.5 164 L 86 182.5 L 85 182.5 L 85.5 164 Z " /><path fill="rgb(254,254,254)" stroke="rgb(254,254,254)" stroke-width="1" opacity="0.9882352941176471" d="M 351.5 167 L 352 185.5 L 351 185.5 L 351.5 167 Z " /><path fill="rgb(254,254,254)" stroke="rgb(254,254,254)" stroke-width="1" opacity="0.9882352941176471" d="M 149.5 169 L 150.5 171 L 149.5 169 Z " /><path fill="rgb(254,254,254)" stroke="rgb(254,254,254)" stroke-width="1" opacity="0.9882352941176471" d="M 252.5 170 L 254 172.5 L 253 173.5 L 253 218.5 L 249.5 223 L 248 222.5 L 251 220.5 L 252 218.5 L 252.5 170 Z " /><path fill="rgb(254,254,254)" stroke="rgb(254,254,254)" stroke-width="1" opacity="0.9882352941176471" d="M 126.5 178 L 127.5 180 L 126.5 178 Z " /><path fill="rgb(254,254,254)" stroke="rgb(254,254,254)" stroke-width="1" opacity="0.9882352941176471" d="M 128.5 181 L 133.5 187 L 128.5 181 Z " /><path fill="rgb(254,254,254)" stroke="rgb(254,254,254)" stroke-width="1" opacity="0.9882352941176471" d="M 191.5 183 L 198.5 191 L 191.5 183 Z " /><path fill="rgb(254,254,254)" stroke="rgb(254,254,254)" stroke-width="1" opacity="0.9882352941176471" d="M 258.5 183 L 261 188.5 L 260 188.5 L 258.5 183 Z " /><path fill="rgb(254,254,254)" stroke="rgb(254,254,254)" stroke-width="1" opacity="0.9882352941176471" d="M 183.5 184 L 187 186.5 L 185.5 186 L 183.5 184 Z " /><path fill="rgb(254,254,254)" stroke="rgb(254,254,254)" stroke-width="1" opacity="0.9882352941176471" d="M 86.5 185 L 87 192.5 L 86 192.5 L 86.5 185 Z " /><path fill="rgb(254,254,254)" stroke="rgb(254,254,254)" stroke-width="1" opacity="0.9882352941176471" d="M 135.5 187 L 136.5 189 L 135.5 187 Z " /><path fill="rgb(254,254,254)" stroke="rgb(254,254,254)" stroke-width="1" opacity="0.9882352941176471" d="M 188.5 187 L 190.5 190 L 188.5 187 Z " /><path fill="rgb(254,254,254)" stroke="rgb(254,254,254)" stroke-width="1" opacity="0.9882352941176471" d="M 350.5 187 L 351 194.5 L 349.5 200 L 349 195.5 L 350.5 187 Z " /><path fill="rgb(254,254,254)" stroke="rgb(254,254,254)" stroke-width="1" opacity="0.9882352941176471" d="M 138.5 189 L 143 191.5 L 141.5 192 L 138.5 189 Z " /><path fill="rgb(254,254,254)" stroke="rgb(254,254,254)" stroke-width="1" opacity="0.9882352941176471" d="M 261.5 190 L 263 193.5 L 262 193.5 L 261.5 190 Z " /><path fill="rgb(254,254,254)" stroke="rgb(254,254,254)" stroke-width="1" opacity="0.9882352941176471" d="M 199.5 192 L 201.5 195 L 199.5 192 Z " /><path fill="rgb(254,254,254)" stroke="rgb(254,254,254)" stroke-width="1" opacity="0.9882352941176471" d="M 87.5 194 L 88 198.5 L 87 198.5 L 87.5 194 Z " /><path fill="rgb(254,254,254)" stroke="rgb(254,254,254)" stroke-width="1" opacity="0.9882352941176471" d="M 196.5 195 L 197.5 197 L 196.5 195 Z " /><path fill="rgb(254,254,254)" stroke="rgb(254,254,254)" stroke-width="1" opacity="0.9882352941176471" d="M 132.5 198 L 128.5 203 L 132.5 198 Z " /><path fill="rgb(254,254,254)" stroke="rgb(254,254,254)" stroke-width="1" opacity="0.9882352941176471" d="M 289.5 199 L 293 206.5 L 292 206.5 L 289.5 199 Z " /><path fill="rgb(254,254,254)" stroke="rgb(254,254,254)" stroke-width="1" opacity="0.9882352941176471" d="M 88.5 200 Q 93.6 226.4 106 245.5 L 202 402.5 L 215.5 421 L 220.5 422 L 232 408.5 L 333 242.5 Q 343.9 224.9 348.5 201 L 349 204.5 Q 343.7 227.2 333 244.5 L 235 405.5 L 222.5 422 L 216.5 423 L 204 407.5 L 102 240.5 Q 91.5 223.1 88.5 200 Z " /><path fill="rgb(254,254,254)" stroke="rgb(254,254,254)" stroke-width="1" opacity="0.9882352941176471" d="M 172.5 204 L 173.5 206 L 172.5 204 Z " /><path fill="rgb(254,254,254)" stroke="rgb(254,254,254)" stroke-width="1" opacity="0.9882352941176471" d="M 126.5 205 L 125.5 207 L 126.5 205 Z " /><path fill="rgb(254,254,254)" stroke="rgb(254,254,254)" stroke-width="1" opacity="0.9882352941176471" d="M 176.5 207 L 178.5 210 L 176.5 207 Z " /><path fill="rgb(254,254,254)" stroke="rgb(254,254,254)" stroke-width="1" opacity="0.9882352941176471" d="M 124.5 208 L 123.5 210 L 124.5 208 Z " /><path fill="rgb(254,254,254)" stroke="rgb(254,254,254)" stroke-width="1" opacity="0.9882352941176471" d="M 204.5 214 L 205 218.5 L 204 218.5 L 204.5 214 Z " /><path fill="rgb(254,254,254)" stroke="rgb(254,254,254)" stroke-width="1" opacity="0.9882352941176471" d="M 182.5 216 L 183 218.5 L 182 218.5 L 182.5 216 Z " /><path fill="rgb(254,254,254)" stroke="rgb(254,254,254)" stroke-width="1" opacity="0.9882352941176471" d="M 244.5 219 L 246 222.5 L 244 221.5 L 244.5 219 Z " /><path fill="rgb(254,254,254)" stroke="rgb(254,254,254)" stroke-width="1" opacity="0.9882352941176471" d="M 182.5 222 L 183 225.5 L 182 225.5 L 182.5 222 Z " /><path fill="rgb(254,254,254)" stroke="rgb(254,254,254)" stroke-width="1" opacity="0.9882352941176471" d="M 196.5 224 L 199 224.5 L 196.5 225 L 196.5 224 Z " /><path fill="rgb(254,254,254)" stroke="rgb(254,254,254)" stroke-width="1" opacity="0.9882352941176471" d="M 212.5 227 L 215 227.5 L 212.5 228 L 212.5 227 Z " /><path fill="rgb(254,254,254)" stroke="rgb(254,254,254)" stroke-width="1" opacity="0.9882352941176471" d="M 233.5 227 L 236 227.5 L 233.5 228 L 233.5 227 Z " /><path fill="rgb(254,254,254)" stroke="rgb(254,254,254)" stroke-width="1" opacity="0.9882352941176471" d="M 181.5 228 L 184 229.5 L 182.5 230 L 181.5 228 Z " /><path fill="rgb(254,254,254)" stroke="rgb(254,254,254)" stroke-width="1" opacity="0.9882352941176471" d="M 264.5 228 L 312 228.5 L 264.5 229 L 264.5 228 Z " /><path fill="rgb(254,254,254)" stroke="rgb(254,254,254)" stroke-width="1" opacity="0.9882352941176471" d="M 311.5 230 L 312 231.5 L 306.5 238 L 299.5 241 L 299.5 240 Q 305.3 239.3 308 235.5 L 311.5 230 Z " /><path fill="rgb(254,254,254)" stroke="rgb(254,254,254)" stroke-width="1" opacity="0.9882352941176471" d="M 268.5 233 L 276 236.5 L 274.5 237 L 268.5 234 L 268.5 233 Z " /><path fill="rgb(254,254,254)" stroke="rgb(254,254,254)" stroke-width="1" opacity="0.9882352941176471" d="M 277.5 237 L 289 240.5 L 285.5 241 L 277.5 238 L 277.5 237 Z " /><path fill="rgb(254,254,254)" stroke="rgb(254,254,254)" stroke-width="1" opacity="0.9882352941176471" d="M 217.5 238 L 232 238.5 L 217.5 239 L 217.5 238 Z " /><path fill="rgb(254,254,254)" stroke="rgb(254,254,254)" stroke-width="1" opacity="0.9882352941176471" d="M 143.5 239 L 144.5 241 L 143.5 239 Z " /><path fill="rgb(254,254,254)" stroke="rgb(254,254,254)" stroke-width="1" opacity="0.9882352941176471" d="M 211.5 239 L 216 239.5 L 211.5 240 L 211.5 239 Z " /><path fill="rgb(254,254,254)" stroke="rgb(254,254,254)" stroke-width="1" opacity="0.9882352941176471" d="M 233.5 239 Q 242 239 247 242.5 L 245.5 243 Q 241.2 239.8 233.5 240 L 233.5 239 Z " /><path fill="rgb(254,254,254)" stroke="rgb(254,254,254)" stroke-width="1" opacity="0.9882352941176471" d="M 207.5 240 L 210 240.5 L 207.5 241 L 207.5 240 Z " /><path fill="rgb(254,254,254)" stroke="rgb(254,254,254)" stroke-width="1" opacity="0.9882352941176471" d="M 290.5 241 L 298 241.5 L 290.5 242 L 290.5 241 Z " /><path fill="rgb(254,254,254)" stroke="rgb(254,254,254)" stroke-width="1" opacity="0.9882352941176471" d="M 155.5 242 L 164 242.5 L 155.5 243 L 155.5 242 Z " /><path fill="rgb(254,254,254)" stroke="rgb(254,254,254)" stroke-width="1" opacity="0.9882352941176471" d="M 146.5 243 L 154.5 252 L 146.5 243 Z " /><path fill="rgb(254,254,254)" stroke="rgb(254,254,254)" stroke-width="1" opacity="0.9882352941176471" d="M 122.5 244 L 123.5 246 L 122.5 244 Z " /><path fill="rgb(254,254,254)" stroke="rgb(254,254,254)" stroke-width="1" opacity="0.9882352941176471" d="M 215.5 244 L 220 244.5 L 215.5 245 L 215.5 244 Z " /><path fill="rgb(254,254,254)" stroke="rgb(254,254,254)" stroke-width="1" opacity="0.9882352941176471" d="M 233.5 244 L 242.5 245 L 246 247.5 L 240.5 251 L 240.5 250 L 245 247.5 L 238.5 245 L 233.5 245 L 233.5 244 Z " /><path fill="rgb(254,254,254)" stroke="rgb(254,254,254)" stroke-width="1" opacity="0.9882352941176471" d="M 282.5 244 L 285 244.5 L 282.5 245 L 282.5 244 Z " /><path fill="rgb(254,254,254)" stroke="rgb(254,254,254)" stroke-width="1" opacity="0.9882352941176471" d="M 211.5 245 L 214 245.5 L 211.5 246 L 211.5 245 Z " /><path fill="rgb(254,254,254)" stroke="rgb(254,254,254)" stroke-width="1" opacity="0.9882352941176471" d="M 286.5 245 L 291 245.5 L 286.5 246 L 286.5 245 Z " /><path fill="rgb(254,254,254)" stroke="rgb(254,254,254)" stroke-width="1" opacity="0.9882352941176471" d="M 207.5 246 L 210 246.5 L 205.5 248 L 205.5 247 L 207.5 246 Z " /><path fill="rgb(254,254,254)" stroke="rgb(254,254,254)" stroke-width="1" opacity="0.9882352941176471" d="M 292.5 246 L 301.5 246 L 303 247.5 L 301 248.5 L 301.5 247 L 292.5 247 L 292.5 246 Z " /><path fill="rgb(254,254,254)" stroke="rgb(254,254,254)" stroke-width="1" opacity="0.9882352941176471" d="M 157.5 247 L 159.5 250 L 157.5 247 Z " /><path fill="rgb(254,254,254)" stroke="rgb(254,254,254)" stroke-width="1" opacity="0.9882352941176471" d="M 202.5 248 L 204 248.5 L 200.5 250 L 200.5 249 L 202.5 248 Z " /><path fill="rgb(254,254,254)" stroke="rgb(254,254,254)" stroke-width="1" opacity="0.9882352941176471" d="M 299.5 249 L 298.5 251 L 299.5 249 Z " /><path fill="rgb(254,254,254)" stroke="rgb(254,254,254)" stroke-width="1" opacity="0.9882352941176471" d="M 252.5 250 L 254 250.5 L 251.5 252 L 252.5 250 Z " /><path fill="rgb(254,254,254)" stroke="rgb(254,254,254)" stroke-width="1" opacity="0.9882352941176471" d="M 127.5 252 L 128.5 254 L 127.5 252 Z " /><path fill="rgb(254,254,254)" stroke="rgb(254,254,254)" stroke-width="1" opacity="0.9882352941176471" d="M 156.5 252 L 158.5 255 L 156.5 252 Z " /><path fill="rgb(254,254,254)" stroke="rgb(254,254,254)" stroke-width="1" opacity="0.9882352941176471" d="M 247.5 253 L 246.5 255 L 247.5 253 Z " /><path fill="rgb(254,254,254)" stroke="rgb(254,254,254)" stroke-width="1" opacity="0.9882352941176471" d="M 276.5 254 L 280 254.5 L 276.5 255 L 276.5 254 Z " /><path fill="rgb(254,254,254)" stroke="rgb(254,254,254)" stroke-width="1" opacity="0.9882352941176471" d="M 284.5 254 L 288 254.5 L 284.5 255 L 284.5 254 Z " /><path fill="rgb(254,254,254)" stroke="rgb(254,254,254)" stroke-width="1" opacity="0.9882352941176471" d="M 129.5 255 L 132.5 259 L 129.5 255 Z " /><path fill="rgb(254,254,254)" stroke="rgb(254,254,254)" stroke-width="1" opacity="0.9882352941176471" d="M 160.5 255 L 161.5 257 L 160.5 255 Z " /><path fill="rgb(254,254,254)" stroke="rgb(254,254,254)" stroke-width="1" opacity="0.9882352941176471" d="M 176.5 256 L 179 256.5 L 175.5 258 L 176.5 256 Z " /><path fill="rgb(254,254,254)" stroke="rgb(254,254,254)" stroke-width="1" opacity="0.9882352941176471" d="M 163.5 257 L 164.5 259 L 163.5 257 Z " /><path fill="rgb(254,254,254)" stroke="rgb(254,254,254)" stroke-width="1" opacity="0.9882352941176471" d="M 265.5 259 L 263.5 262 L 265.5 259 Z " /><path fill="rgb(254,254,254)" stroke="rgb(254,254,254)" stroke-width="1" opacity="0.9882352941176471" d="M 133.5 260 L 143 268.5 L 139.5 266 L 133.5 260 Z " /><path fill="rgb(254,254,254)" stroke="rgb(254,254,254)" stroke-width="1" opacity="0.9882352941176471" d="M 205.5 262 L 208 262.5 L 205.5 263 L 205.5 262 Z " /><path fill="rgb(254,254,254)" stroke="rgb(254,254,254)" stroke-width="1" opacity="0.9882352941176471" d="M 261.5 262 L 260.5 264 L 261.5 262 Z " /><path fill="rgb(254,254,254)" stroke="rgb(254,254,254)" stroke-width="1" opacity="0.9882352941176471" d="M 190.5 263 L 202 263.5 L 190.5 264 L 190.5 263 Z " /><path fill="rgb(254,254,254)" stroke="rgb(254,254,254)" stroke-width="1" opacity="0.9882352941176471" d="M 258.5 264 L 257.5 266 L 258.5 264 Z " /><path fill="rgb(254,254,254)" stroke="rgb(254,254,254)" stroke-width="1" opacity="0.9882352941176471" d="M 255.5 266 L 254.5 268 L 255.5 266 Z " /><path fill="rgb(254,254,254)" stroke="rgb(254,254,254)" stroke-width="1" opacity="0.9882352941176471" d="M 198.5 268 L 201 268.5 L 198.5 269 L 198.5 268 Z " /><path fill="rgb(254,254,254)" stroke="rgb(254,254,254)" stroke-width="1" opacity="0.9882352941176471" d="M 252.5 268 L 251.5 270 L 249.5 271 L 250.5 269 L 252.5 268 Z " /><path fill="rgb(254,254,254)" stroke="rgb(254,254,254)" stroke-width="1" opacity="0.9882352941176471" d="M 144.5 269 L 145.5 271 L 144.5 269 Z " /><path fill="rgb(254,254,254)" stroke="rgb(254,254,254)" stroke-width="1" opacity="0.9882352941176471" d="M 147.5 271 L 148.5 273 L 147.5 271 Z " /><path fill="rgb(254,254,254)" stroke="rgb(254,254,254)" stroke-width="1" opacity="0.9882352941176471" d="M 247.5 271 L 246.5 273 L 244.5 274 L 245.5 272 L 247.5 271 Z " /><path fill="rgb(254,254,254)" stroke="rgb(254,254,254)" stroke-width="1" opacity="0.9882352941176471" d="M 152.5 274 L 159 277.5 L 157.5 278 Q 152.9 276.8 152.5 274 Z " /><path fill="rgb(254,254,254)" stroke="rgb(254,254,254)" stroke-width="1" opacity="0.9882352941176471" d="M 239.5 275 L 241 275.5 L 235.5 278 L 235.5 277 L 239.5 275 Z " /><path fill="rgb(254,254,254)" stroke="rgb(254,254,254)" stroke-width="1" opacity="0.9882352941176471" d="M 160.5 278 L 164 279.5 L 162.5 280 L 160.5 278 Z " /><path fill="rgb(254,254,254)" stroke="rgb(254,254,254)" stroke-width="1" opacity="0.9882352941176471" d="M 232.5 278 L 234 278.5 L 230.5 280 L 230.5 279 L 232.5 278 Z " /><path fill="rgb(254,254,254)" stroke="rgb(254,254,254)" stroke-width="1" opacity="0.9882352941176471" d="M 223.5 281 L 226 281.5 L 223.5 282 L 223.5 281 Z " /><path fill="rgb(254,254,254)" stroke="rgb(254,254,254)" stroke-width="1" opacity="0.9882352941176471" d="M 213.5 283 L 216 283.5 L 213.5 284 L 213.5 283 Z " /><path fill="rgb(254,254,254)" stroke="rgb(254,254,254)" stroke-width="1" opacity="0.9882352941176471" d="M 182.5 284 L 188 284.5 L 182.5 285 L 182.5 284 Z " /><path fill="rgb(254,254,254)" stroke="rgb(254,254,254)" stroke-width="1" opacity="0.9882352941176471" d="M 206.5 284 L 211 284.5 L 206.5 285 L 206.5 284 Z " /><path fill="rgb(20,45,66)" stroke="rgb(20,45,66)" stroke-width="1" opacity="1" d="M 217.5 64 L 218 92 L 224 93 L 230.5 83 L 233 81.5 L 233.5 80 L 234 221 L 217.5 221 L 217 220.5 L 217.5 64 Z " /><path fill="rgb(20,45,66)" stroke="rgb(20,45,66)" stroke-width="1" opacity="1" d="M 203.5 85 L 201 88.5 L 202 89.5 Q 198.9 94.9 200 104.5 Q 201.5 113.5 207 118.5 L 207 128 Q 189.5 125.3 180 113.5 L 176 106.5 L 203.5 85 Z " /><path fill="rgb(20,45,66)" stroke="rgb(20,45,66)" stroke-width="1" opacity="1" d="M 286.5 88 L 288 89.5 L 288 102.5 Q 284.3 113.8 275.5 120 Q 264.4 129.4 242.5 128 L 243.5 126 L 253 117.5 Q 258.6 105.6 268.5 98 L 281.5 92 L 286.5 88 Z " /><path fill="rgb(20,45,66)" stroke="rgb(20,45,66)" stroke-width="1" opacity="1" d="M 156.5 131 L 173.5 132 L 183 134 L 182.5 152 L 175.5 150 L 159.5 149 L 151.5 151 L 146 155.5 Q 143.2 158.2 144 164.5 L 147 170 L 158.5 176 Q 172.9 179.6 184.5 186 L 198 198.5 L 203 208.5 L 204 219.5 L 203 222 L 183.5 227 L 184 225.5 L 183 213.5 L 173.5 203 L 137.5 188 L 129 180.5 Q 122.3 173.7 124 158.5 L 126 150.5 L 130.5 144 L 129 146.5 Q 126 150.5 126 157.5 L 127 157.5 L 131 147.5 L 135 142 L 148 134.5 L 146 133.5 L 147.5 133 L 150.5 134 L 150.5 133 L 149 132.5 L 156.5 131 Z " /><path fill="rgb(20,45,66)" stroke="rgb(20,45,66)" stroke-width="1" opacity="1" d="M 191 135 L 202.5 135 L 203 135.5 L 203 174.5 L 204 177.5 L 203 182.5 L 204 183.5 L 204 194.5 L 201 192.5 L 191 181.5 L 191 135 Z " /><path fill="rgb(20,45,66)" stroke="rgb(20,45,66)" stroke-width="1" opacity="1" d="M 246 135 L 251.5 136 L 261.5 136 L 264 137.5 Q 261.2 139.2 262 144.5 L 295.5 216 L 297 214.5 L 297 135 L 312.5 135 L 313 135.5 L 313 221 L 277.5 221 L 276 219.5 L 252.5 168 L 252 211.5 Q 249.5 213 251 218.5 L 248.5 221 L 245 220.5 L 245 188.5 L 245 186.5 L 245 177.5 L 246 176.5 L 246 135 Z " /><path fill="rgb(20,45,66)" stroke="rgb(20,45,66)" stroke-width="1" opacity="1" d="M 133.5 140 L 132.5 142 L 133.5 140 Z " /><path fill="rgb(20,45,66)" stroke="rgb(20,45,66)" stroke-width="1" opacity="1" d="M 132.5 200 L 133 201.5 L 132 202.5 L 132 212.5 L 136 228.5 Q 141.6 240.9 150.5 250 Q 160.9 260.1 175.5 266 L 191.5 270 L 207.5 270 L 228.5 265 L 253.5 252 L 266 257.5 Q 248.6 272.1 224.5 280 L 210.5 283 L 183.5 283 L 172.5 281 L 152.5 273 Q 139.4 265.6 130 254.5 L 121 238.5 L 119 230.5 L 119 223.5 Q 123.1 209.1 132.5 200 Z " /><path fill="rgb(20,45,66)" stroke="rgb(20,45,66)" stroke-width="1" opacity="1" d="M 287 247 L 296 248 L 294.5 251 L 287.5 253 L 276.5 253 L 272 251.5 Q 277.5 247.8 287 249 L 287 247 Z " /><path fill="rgb(20,45,66)" stroke="rgb(20,45,66)" stroke-width="1" opacity="1" d="M 208.5 256 L 220 256.5 L 206.5 261 L 187.5 261 L 188.5 259 L 204.5 258 L 208.5 256 Z " /><path fill="rgb(42,96,125)" stroke="rgb(42,96,125)" stroke-width="1" opacity="1" d="M 217.5 59 L 234 76.5 L 234 79.5 L 231.5 83 L 229 84.5 L 224 93 L 218 92 L 218 64.5 Q 215.6 63.1 217.5 59 Z " /><path fill="rgb(42,96,125)" stroke="rgb(42,96,125)" stroke-width="1" opacity="1" d="M 204.5 84 L 205 85.5 L 201 96.5 L 201 103.5 L 203 111.5 L 208 118.5 L 208 127.5 L 207 127.5 L 207 118.5 Q 198.9 111.6 200 95.5 L 202 89.5 Q 197.8 87.3 202.5 85 L 204 85.5 L 204.5 84 Z " /><path fill="rgb(42,96,125)" stroke="rgb(42,96,125)" stroke-width="1" opacity="1" d="M 286.5 87 Q 288.8 86.3 288 88.5 L 289 89.5 L 289 101.5 L 288 101.5 L 288 89.5 L 286.5 88 L 276.5 94 L 276.5 93 L 286.5 87 Z " /><path fill="rgb(42,96,125)" stroke="rgb(42,96,125)" stroke-width="1" opacity="1" d="M 197.5 89 L 195.5 92 L 197.5 89 Z " /><path fill="rgb(42,96,125)" stroke="rgb(42,96,125)" stroke-width="1" opacity="1" d="M 193.5 92 L 191.5 95 L 193.5 92 Z " /><path fill="rgb(42,96,125)" stroke="rgb(42,96,125)" stroke-width="1" opacity="1" d="M 273.5 94 L 275 94.5 Q 265.2 98.7 259.5 107 L 262 103.5 Q 261.3 101.3 263.5 102 L 273.5 94 Z " /><path fill="rgb(42,96,125)" stroke="rgb(42,96,125)" stroke-width="1" opacity="1" d="M 189.5 95 L 186.5 99 L 176 106.5 L 177 109.5 L 185 118.5 L 178 112.5 L 175 106.5 L 189.5 95 Z " /><path fill="rgb(42,96,125)" stroke="rgb(42,96,125)" stroke-width="1" opacity="1" d="M 286.5 106 L 287 107.5 L 276.5 120 L 283 112.5 L 286.5 106 Z " /><path fill="rgb(42,96,125)" stroke="rgb(42,96,125)" stroke-width="1" opacity="1" d="M 258.5 108 L 257.5 110 L 258.5 108 Z " /><path fill="rgb(42,96,125)" stroke="rgb(42,96,125)" stroke-width="1" opacity="1" d="M 256.5 111 L 255.5 113 L 256.5 111 Z " /><path fill="rgb(42,96,125)" stroke="rgb(42,96,125)" stroke-width="1" opacity="1" d="M 252.5 117 L 251.5 119 L 252.5 117 Z " /><path fill="rgb(42,96,125)" stroke="rgb(42,96,125)" stroke-width="1" opacity="1" d="M 186.5 119 L 187.5 121 L 186.5 119 Z " /><path fill="rgb(42,96,125)" stroke="rgb(42,96,125)" stroke-width="1" opacity="1" d="M 274.5 120 L 273.5 122 L 274.5 120 Z " /><path fill="rgb(42,96,125)" stroke="rgb(42,96,125)" stroke-width="1" opacity="1" d="M 245.5 124 L 244.5 126 L 245.5 124 Z " /><path fill="rgb(42,96,125)" stroke="rgb(42,96,125)" stroke-width="1" opacity="1" d="M 241.5 127 L 242.5 128 L 252 128.5 L 240.5 129 L 241.5 127 Z " /><path fill="rgb(42,96,125)" stroke="rgb(42,96,125)" stroke-width="1" opacity="1" d="M 256.5 127 L 259 127.5 L 256.5 128 L 256.5 127 Z " /><path fill="rgb(42,96,125)" stroke="rgb(42,96,125)" stroke-width="1" opacity="1" d="M 152.5 131 L 156 131.5 L 152.5 132 L 152.5 131 Z " /><path fill="rgb(42,96,125)" stroke="rgb(42,96,125)" stroke-width="1" opacity="1" d="M 164.5 131 L 168 131.5 L 164.5 132 L 164.5 131 Z " /><path fill="rgb(42,96,125)" stroke="rgb(42,96,125)" stroke-width="1" opacity="1" d="M 147.5 132 L 151 133.5 L 147.5 135 L 147.5 132 Z " /><path fill="rgb(42,96,125)" stroke="rgb(42,96,125)" stroke-width="1" opacity="1" d="M 144 133 Q 147 131.8 146 135.5 L 144 134.5 L 144 133 Z " /><path fill="rgb(42,96,125)" stroke="rgb(42,96,125)" stroke-width="1" opacity="1" d="M 142.5 134 L 144 136.5 L 142.5 136 L 141 136.5 L 141.5 138 L 139.5 137 Q 141.3 139.5 136.5 142 L 139 138.5 L 138 137.5 Q 137.2 134.9 140.5 136 L 142.5 134 Z " /><path fill="rgb(42,96,125)" stroke="rgb(42,96,125)" stroke-width="1" opacity="1" d="M 203.5 135 L 204 174.5 L 203 174.5 L 203.5 135 Z " /><path fill="rgb(42,96,125)" stroke="rgb(42,96,125)" stroke-width="1" opacity="1" d="M 245.5 135 L 246 176.5 L 245 176.5 L 245.5 135 Z " /><path fill="rgb(42,96,125)" stroke="rgb(42,96,125)" stroke-width="1" opacity="1" d="M 251.5 135 L 254 135.5 L 251.5 136 L 251.5 135 Z " /><path fill="rgb(42,96,125)" stroke="rgb(42,96,125)" stroke-width="1" opacity="1" d="M 296.5 135 L 297 214.5 L 295 215.5 L 294 213.5 L 296 213.5 L 296.5 135 Z " /><path fill="rgb(42,96,125)" stroke="rgb(42,96,125)" stroke-width="1" opacity="1" d="M 313.5 135 L 314 220.5 L 312.5 222 L 277.5 222 L 276.5 220 L 277.5 221 L 313 221 L 313.5 135 Z " /><path fill="rgb(42,96,125)" stroke="rgb(42,96,125)" stroke-width="1" opacity="1" d="M 262.5 136 Q 265.8 134.9 265 137.5 L 263 138.5 L 263.5 137 L 262.5 136 Z " /><path fill="rgb(42,96,125)" stroke="rgb(42,96,125)" stroke-width="1" opacity="1" d="M 135.5 138 L 137 138.5 L 130 144.5 Q 132.3 145.8 129.5 147 L 129 144.5 L 131.5 142 L 134 140.5 L 135.5 138 Z " /><path fill="rgb(42,96,125)" stroke="rgb(42,96,125)" stroke-width="1" opacity="1" d="M 134.5 143 L 132.5 146 L 134.5 143 Z " /><path fill="rgb(42,96,125)" stroke="rgb(42,96,125)" stroke-width="1" opacity="1" d="M 127.5 147 L 128.5 149 L 127.5 147 Z " /><path fill="rgb(42,96,125)" stroke="rgb(42,96,125)" stroke-width="1" opacity="1" d="M 126.5 149 L 129 152.5 L 127 151.5 L 126.5 149 Z " /><path fill="rgb(42,96,125)" stroke="rgb(42,96,125)" stroke-width="1" opacity="1" d="M 159.5 149 L 167 149.5 L 159.5 150 L 159.5 149 Z " /><path fill="rgb(42,96,125)" stroke="rgb(42,96,125)" stroke-width="1" opacity="1" d="M 154.5 150 L 158 150.5 L 154.5 151 L 154.5 150 Z " /><path fill="rgb(42,96,125)" stroke="rgb(42,96,125)" stroke-width="1" opacity="1" d="M 168.5 150 L 182 151.5 L 176.5 152 Q 174.8 149.3 168.5 151 L 168.5 150 Z " /><path fill="rgb(42,96,125)" stroke="rgb(42,96,125)" stroke-width="1" opacity="1" d="M 151.5 151 L 153 151.5 L 147 155.5 Q 144.2 158.2 145 164.5 L 147 167.5 L 145 166.5 L 144 159.5 L 148.5 153 L 151.5 151 Z " /><path fill="rgb(42,96,125)" stroke="rgb(42,96,125)" stroke-width="1" opacity="1" d="M 126 154 L 128 154.5 L 126.5 158 L 126 154 Z " /><path fill="rgb(42,96,125)" stroke="rgb(42,96,125)" stroke-width="1" opacity="1" d="M 124.5 155 L 125 157.5 L 124 157.5 L 124.5 155 Z " /><path fill="rgb(42,96,125)" stroke="rgb(42,96,125)" stroke-width="1" opacity="1" d="M 267.5 155 L 271 162.5 L 270 162.5 L 267.5 155 Z " /><path fill="rgb(42,96,125)" stroke="rgb(42,96,125)" stroke-width="1" opacity="1" d="M 123.5 160 L 124 166.5 L 123 166.5 L 123.5 160 Z " /><path fill="rgb(42,96,125)" stroke="rgb(42,96,125)" stroke-width="1" opacity="1" d="M 251.5 167 L 252.5 169 L 251.5 167 Z " /><path fill="rgb(42,96,125)" stroke="rgb(42,96,125)" stroke-width="1" opacity="1" d="M 273.5 168 L 279 179.5 L 278 179.5 L 273 169.5 L 273.5 168 Z " /><path fill="rgb(42,96,125)" stroke="rgb(42,96,125)" stroke-width="1" opacity="1" d="M 149.5 170 L 150.5 172 L 149.5 170 Z " /><path fill="rgb(42,96,125)" stroke="rgb(42,96,125)" stroke-width="1" opacity="1" d="M 203.5 178 L 204 182.5 L 203 182.5 L 203.5 178 Z " /><path fill="rgb(42,96,125)" stroke="rgb(42,96,125)" stroke-width="1" opacity="1" d="M 279.5 181 L 286 194.5 L 285 194.5 L 279 182.5 L 279.5 181 Z " /><path fill="rgb(42,96,125)" stroke="rgb(42,96,125)" stroke-width="1" opacity="1" d="M 191.5 182 L 193.5 185 L 191.5 182 Z " /><path fill="rgb(42,96,125)" stroke="rgb(42,96,125)" stroke-width="1" opacity="1" d="M 135.5 186 L 136.5 188 L 135.5 186 Z " /><path fill="rgb(42,96,125)" stroke="rgb(42,96,125)" stroke-width="1" opacity="1" d="M 186.5 187 L 187.5 189 L 186.5 187 Z " /><path fill="rgb(42,96,125)" stroke="rgb(42,96,125)" stroke-width="1" opacity="1" d="M 198.5 189 L 200.5 192 L 198.5 189 Z " /><path fill="rgb(42,96,125)" stroke="rgb(42,96,125)" stroke-width="1" opacity="1" d="M 190.5 190 L 195.5 196 L 190.5 190 Z " /><path fill="rgb(42,96,125)" stroke="rgb(42,96,125)" stroke-width="1" opacity="1" d="M 146.5 192 L 150 193.5 L 148.5 194 L 146.5 192 Z " /><path fill="rgb(42,96,125)" stroke="rgb(42,96,125)" stroke-width="1" opacity="1" d="M 202.5 194 L 203.5 196 L 202.5 194 Z " /><path fill="rgb(42,96,125)" stroke="rgb(42,96,125)" stroke-width="1" opacity="1" d="M 154.5 195 L 158 196.5 L 156.5 197 L 154.5 195 Z " /><path fill="rgb(42,96,125)" stroke="rgb(42,96,125)" stroke-width="1" opacity="1" d="M 286.5 196 L 292 207.5 L 291 207.5 L 286 197.5 L 286.5 196 Z " /><path fill="rgb(42,96,125)" stroke="rgb(42,96,125)" stroke-width="1" opacity="1" d="M 159.5 197 L 173.5 203 L 177 206.5 L 173.5 204 L 159.5 198 L 159.5 197 Z " /><path fill="rgb(42,96,125)" stroke="rgb(42,96,125)" stroke-width="1" opacity="1" d="M 132.5 202 L 133 212.5 L 132 212.5 L 132.5 202 Z " /><path fill="rgb(42,96,125)" stroke="rgb(42,96,125)" stroke-width="1" opacity="1" d="M 128.5 204 L 127.5 206 L 128.5 204 Z " /><path fill="rgb(42,96,125)" stroke="rgb(42,96,125)" stroke-width="1" opacity="1" d="M 126.5 207 L 125.5 209 L 126.5 207 Z " /><path fill="rgb(42,96,125)" stroke="rgb(42,96,125)" stroke-width="1" opacity="1" d="M 178.5 208 L 183 214.5 L 182 214.5 L 178.5 208 Z " /><path fill="rgb(42,96,125)" stroke="rgb(42,96,125)" stroke-width="1" opacity="1" d="M 124.5 210 L 124 211.5 L 121.5 217 L 121 215.5 L 124.5 210 Z " /><path fill="rgb(42,96,125)" stroke="rgb(42,96,125)" stroke-width="1" opacity="1" d="M 251.5 212 L 252 217.5 L 251 217.5 L 251.5 212 Z " /><path fill="rgb(42,96,125)" stroke="rgb(42,96,125)" stroke-width="1" opacity="1" d="M 183.5 216 L 184 218.5 L 183 218.5 L 183.5 216 Z " /><path fill="rgb(42,96,125)" stroke="rgb(42,96,125)" stroke-width="1" opacity="1" d="M 250.5 219 L 248.5 222 L 246 221.5 L 250.5 219 Z " /><path fill="rgb(42,96,125)" stroke="rgb(42,96,125)" stroke-width="1" opacity="1" d="M 183.5 222 L 184 225.5 L 183 225.5 L 183.5 222 Z " /><path fill="rgb(42,96,125)" stroke="rgb(42,96,125)" stroke-width="1" opacity="1" d="M 182.5 227 L 185 227.5 L 182.5 228 L 182.5 227 Z " /><path fill="rgb(42,96,125)" stroke="rgb(42,96,125)" stroke-width="1" opacity="1" d="M 215.5 228 L 232.5 228 L 233.5 229 L 246.5 230 L 255.5 233 L 275.5 243 L 289 246.5 L 287 247 L 286.5 249 L 278.5 249 L 272 251.5 Q 277.6 254.4 287.5 253 L 296 249.5 Q 296.8 246.9 293.5 248 L 293.5 247 L 301 247.5 Q 293.5 255.5 276.5 254 L 263.5 250 Q 253.2 242.8 239.5 239 L 228.5 237 L 220.5 237 L 219.5 238 L 208.5 239 L 180.5 250 L 164.5 251 L 155 243.5 L 169.5 242 L 195.5 232 L 215.5 228 Z " /><path fill="rgb(42,96,125)" stroke="rgb(42,96,125)" stroke-width="1" opacity="1" d="M 264.5 229 L 311 229.5 L 303.5 238 Q 298.5 242 287.5 240 L 267.5 232 L 264.5 229 Z M 288 230 L 288 231 L 293 231 L 288 230 Z " /><path fill="rgb(42,96,125)" stroke="rgb(42,96,125)" stroke-width="1" opacity="1" d="M 119.5 231 L 120 233.5 L 119 233.5 L 119.5 231 Z " /><path fill="rgb(42,96,125)" stroke="rgb(42,96,125)" stroke-width="1" opacity="1" d="M 140.5 236 L 141.5 238 L 140.5 236 Z " /><path fill="rgb(42,96,125)" stroke="rgb(42,96,125)" stroke-width="1" opacity="1" d="M 142.5 239 L 143.5 241 L 142.5 239 Z " /><path fill="rgb(42,96,125)" stroke="rgb(42,96,125)" stroke-width="1" opacity="1" d="M 145.5 243 L 148.5 247 L 145.5 243 Z " /><path fill="rgb(42,96,125)" stroke="rgb(42,96,125)" stroke-width="1" opacity="1" d="M 216.5 245 L 236.5 245 L 244 247.5 L 234.5 253 L 215.5 260 L 200.5 263 L 191.5 263 L 176 258.5 L 187.5 256 L 216.5 245 Z M 221 246 L 221 247 L 229 247 L 221 246 Z M 209 256 L 205 258 L 189 259 L 188 261 L 207 261 L 220 257 L 209 256 Z " /><path fill="rgb(42,96,125)" stroke="rgb(42,96,125)" stroke-width="1" opacity="1" d="M 149.5 248 L 150.5 250 L 149.5 248 Z " /><path fill="rgb(42,96,125)" stroke="rgb(42,96,125)" stroke-width="1" opacity="1" d="M 126.5 249 L 127.5 251 L 126.5 249 Z " /><path fill="rgb(42,96,125)" stroke="rgb(42,96,125)" stroke-width="1" opacity="1" d="M 128.5 252 L 129.5 254 L 128.5 252 Z " /><path fill="rgb(42,96,125)" stroke="rgb(42,96,125)" stroke-width="1" opacity="1" d="M 154.5 252 L 156.5 255 L 154.5 252 Z " /><path fill="rgb(42,96,125)" stroke="rgb(42,96,125)" stroke-width="1" opacity="1" d="M 246.5 255 L 245.5 257 L 246.5 255 Z " /><path fill="rgb(42,96,125)" stroke="rgb(42,96,125)" stroke-width="1" opacity="1" d="M 159.5 256 L 160.5 258 L 159.5 256 Z " /><path fill="rgb(42,96,125)" stroke="rgb(42,96,125)" stroke-width="1" opacity="1" d="M 132.5 257 L 144 267.5 L 140.5 265 L 132.5 257 Z " /><path fill="rgb(42,96,125)" stroke="rgb(42,96,125)" stroke-width="1" opacity="1" d="M 266.5 257 L 265.5 259 L 266.5 257 Z " /><path fill="rgb(42,96,125)" stroke="rgb(42,96,125)" stroke-width="1" opacity="1" d="M 162.5 258 L 163.5 260 L 162.5 258 Z " /><path fill="rgb(42,96,125)" stroke="rgb(42,96,125)" stroke-width="1" opacity="1" d="M 263.5 259 L 261.5 262 L 263.5 259 Z " /><path fill="rgb(42,96,125)" stroke="rgb(42,96,125)" stroke-width="1" opacity="1" d="M 259.5 262 L 258.5 264 L 250.5 269 L 251.5 267 L 259.5 262 Z " /><path fill="rgb(42,96,125)" stroke="rgb(42,96,125)" stroke-width="1" opacity="1" d="M 145.5 268 L 146.5 270 L 145.5 268 Z " /><path fill="rgb(42,96,125)" stroke="rgb(42,96,125)" stroke-width="1" opacity="1" d="M 185.5 268 L 188 268.5 L 185.5 269 L 185.5 268 Z " /><path fill="rgb(42,96,125)" stroke="rgb(42,96,125)" stroke-width="1" opacity="1" d="M 212.5 268 L 215 268.5 L 212.5 269 L 212.5 268 Z " /><path fill="rgb(42,96,125)" stroke="rgb(42,96,125)" stroke-width="1" opacity="1" d="M 191.5 269 L 208 269.5 L 191.5 270 L 191.5 269 Z " /><path fill="rgb(42,96,125)" stroke="rgb(42,96,125)" stroke-width="1" opacity="1" d="M 248.5 269 L 247.5 271 L 236.5 276 L 236.5 275 L 248.5 269 Z " /><path fill="rgb(42,96,125)" stroke="rgb(42,96,125)" stroke-width="1" opacity="1" d="M 148.5 270 L 152 272.5 L 150.5 272 L 148.5 270 Z " /><path fill="rgb(42,96,125)" stroke="rgb(42,96,125)" stroke-width="1" opacity="1" d="M 233.5 276 L 235 276.5 L 231.5 278 L 231.5 277 L 233.5 276 Z " /><path fill="rgb(42,96,125)" stroke="rgb(42,96,125)" stroke-width="1" opacity="1" d="M 221.5 280 L 224 280.5 L 221.5 281 L 221.5 280 Z " /><path fill="rgb(42,96,125)" stroke="rgb(42,96,125)" stroke-width="1" opacity="1" d="M 174.5 281 L 177 281.5 L 174.5 282 L 174.5 281 Z " /><path fill="rgb(42,96,125)" stroke="rgb(42,96,125)" stroke-width="1" opacity="1" d="M 216.5 281 L 219 281.5 L 216.5 282 L 216.5 281 Z " /><path fill="rgb(42,96,125)" stroke="rgb(42,96,125)" stroke-width="1" opacity="1" d="M 179.5 282 L 183 282.5 L 179.5 283 L 179.5 282 Z " /><path fill="rgb(42,96,125)" stroke="rgb(42,96,125)" stroke-width="1" opacity="1" d="M 211.5 282 L 214 282.5 L 211.5 283 L 211.5 282 Z " /><path fill="rgb(42,96,125)" stroke="rgb(42,96,125)" stroke-width="1" opacity="1" d="M 187.5 283 L 207 283.5 L 187.5 284 L 187.5 283 Z " /><path fill="rgb(255,255,255)" stroke="rgb(255,255,255)" stroke-width="1" opacity="1" d="M 211.5 42 L 225.5 42 L 226.5 43 L 242.5 44 L 269.5 52 Q 300.9 65.6 321 90.5 Q 337.5 110 346 137.5 L 350 156.5 L 351 186.5 L 346 212.5 Q 341 229 333 242.5 L 232 408.5 L 220.5 422 Q 214.1 421.9 212 417.5 Q 152.8 324.7 97 228.5 L 88 199.5 L 87 185.5 L 86 184.5 L 86 163.5 L 90 140.5 Q 95 122 104 107.5 Q 116.4 86.9 134.5 72 Q 151 58.5 172.5 50 L 194.5 44 L 210.5 43 L 211.5 42 Z M 217 57 L 215 59 L 215 222 L 218 223 L 235 223 L 236 222 L 236 77 L 219 59 L 217 57 Z M 205 82 L 174 106 Q 174 113 179 116 Q 190 127 209 129 L 209 119 L 202 107 Q 200 92 206 86 Q 207 81 205 82 Z M 287 85 L 281 90 L 268 96 L 258 106 L 250 120 L 241 126 L 239 129 L 261 128 L 278 121 L 288 109 L 291 98 L 289 87 Q 290 84 287 85 Z M 158 129 L 157 130 L 146 131 L 136 136 Q 125 144 122 161 L 122 163 L 123 172 L 128 182 L 140 191 L 164 200 L 175 206 Q 181 210 183 220 L 182 228 Q 180 229 183 230 L 196 225 L 203 224 L 205 219 Q 205 204 198 197 L 186 185 L 153 172 L 148 169 L 146 166 L 147 158 Q 150 152 158 151 L 171 151 L 179 153 L 184 153 L 184 151 L 184 147 L 184 136 L 185 135 L 184 132 L 173 130 L 158 129 Z M 191 133 L 190 136 L 190 182 L 202 196 Q 201 198 204 197 L 204 134 L 204 133 L 191 133 Z M 246 133 L 244 135 L 244 222 Q 245 224 250 223 L 253 219 L 254 173 L 275 223 L 315 223 L 315 135 L 314 133 L 297 133 L 295 135 L 295 210 L 263 144 L 267 135 L 246 133 Z M 133 198 Q 121 208 117 227 L 121 243 L 133 261 Q 143 271 158 278 L 169 282 L 183 285 L 211 285 L 226 282 Q 247 275 264 262 L 268 256 Q 260 255 254 250 Q 236 263 210 268 L 190 268 L 181 266 Q 166 261 156 252 Q 138 239 133 214 L 133 204 L 134 203 Q 136 197 133 198 Z M 213 227 L 192 232 L 171 241 L 156 242 L 153 244 L 164 252 L 181 251 L 207 241 L 217 239 L 233 239 L 242 241 L 249 243 L 266 252 L 277 255 Q 295 256 303 248 L 302 246 L 292 246 L 281 244 L 251 230 L 243 228 Q 237 230 236 227 L 213 227 Z M 265 228 L 264 229 Q 261 228 262 231 Q 274 238 291 242 Q 301 243 307 238 L 312 232 L 312 228 L 265 228 Z M 216 244 L 208 246 L 190 254 L 177 256 L 175 259 L 181 262 L 191 264 L 202 264 L 216 261 Q 233 256 246 248 L 239 244 L 216 244 Z " /></svg>